<svg width="24" height="24" viewBox="0 0 24 24" fill="none" xmlns="http://www.w3.org/2000/svg">
<path d="M17.5 11C18.9587 11 20.3576 11.5795 21.3891 12.6109C22.4205 13.6424 23 15.0413 23 16.5C23 17.9587 22.4205 19.3576 21.3891 20.3891C20.3576 21.4205 18.9587 22 17.5 22C16.0413 22 14.6424 21.4205 13.6109 20.3891C12.5795 19.3576 12 17.9587 12 16.5C12 15.0413 12.5795 13.6424 13.6109 12.6109C14.6424 11.5795 16.0413 11 17.5 11V11ZM17.5 13L17.41 13.007C17.3101 13.0253 17.2181 13.0735 17.1463 13.1453C17.0745 13.2171 17.0263 13.3091 17.008 13.409L17 13.5V16H14.498L14.408 16.008C14.3081 16.0263 14.2161 16.0745 14.1443 16.1463C14.0725 16.2181 14.0243 16.3101 14.006 16.41L13.998 16.5L14.006 16.59C14.0243 16.6899 14.0725 16.7819 14.1443 16.8537C14.2161 16.9255 14.3081 16.9737 14.408 16.992L14.498 17H17V19.503L17.008 19.593C17.0263 19.6929 17.0745 19.7849 17.1463 19.8567C17.2181 19.9285 17.3101 19.9767 17.41 19.995L17.5 20.003L17.59 19.995C17.6899 19.9767 17.7819 19.9285 17.8537 19.8567C17.9255 19.7849 17.9737 19.6929 17.992 19.593L18 19.503V17L20.504 17.001L20.594 16.993C20.6939 16.9747 20.7859 16.9265 20.8577 16.8547C20.9295 16.7829 20.9777 16.6909 20.996 16.591L21.004 16.501L20.996 16.411C20.9777 16.311 20.9293 16.2189 20.8573 16.1471C20.7853 16.0752 20.6931 16.0271 20.593 16.009L20.503 16.001H18V13.501L17.992 13.411C17.9739 13.3109 17.9258 13.2187 17.8539 13.1467C17.7821 13.0747 17.69 13.0263 17.59 13.008L17.5 13ZM8.207 4C8.667 4 9.115 4.141 9.491 4.402L9.647 4.522L12.022 6.5H19.75C20.2928 6.49982 20.8174 6.69588 21.227 7.05204C21.6367 7.40819 21.9037 7.90043 21.979 8.438L21.995 8.596L22 8.75V11.81C21.554 11.3817 21.0492 11.0191 20.501 10.733L20.5 8.75C20.5 8.56876 20.4344 8.39366 20.3152 8.25707C20.1961 8.12048 20.0316 8.03165 19.852 8.007L19.75 8H12.021L9.647 9.979C9.29425 10.2725 8.86018 10.4512 8.403 10.491L8.207 10.5L3.5 10.499V17.75C3.5 18.13 3.782 18.444 4.148 18.493L4.25 18.5H11.314C11.486 19.034 11.726 19.538 12.023 20.001L4.25 20C3.67987 20.0001 3.13098 19.7837 2.71425 19.3946C2.29751 19.0056 2.04402 18.4728 2.005 17.904L2 17.75V6.25C1.99993 5.67987 2.2163 5.13098 2.60537 4.71425C2.99444 4.29751 3.52721 4.04402 4.096 4.005L4.25 4H8.207ZM8.207 5.5H4.25C4.06876 5.50001 3.89366 5.56564 3.75707 5.68477C3.62048 5.80389 3.53165 5.96845 3.507 6.148L3.5 6.25V8.999L8.207 9C8.34662 8.99983 8.48342 8.9607 8.602 8.887L8.687 8.827L10.578 7.249L8.688 5.674C8.5804 5.5842 8.4498 5.52635 8.311 5.507L8.207 5.5Z" fill="#128087"/>
</svg>
