<svg width="24" height="24" viewBox="0 0 24 24" fill="none" xmlns="http://www.w3.org/2000/svg">
<path d="M12 6.5C12 5.77773 11.8577 5.06253 11.5813 4.39524C11.3049 3.72795 10.8998 3.12163 10.3891 2.61091C9.87837 2.10019 9.27205 1.69506 8.60476 1.41866C7.93747 1.14226 7.22227 1 6.5 1C5.77773 1 5.06253 1.14226 4.39524 1.41866C3.72795 1.69506 3.12163 2.10019 2.61091 2.61091C2.10019 3.12163 1.69506 3.72795 1.41866 4.39524C1.14226 5.06253 1 5.77773 1 6.5C1 7.95869 1.57946 9.35764 2.61091 10.3891C3.64236 11.4205 5.04131 12 6.5 12C7.95869 12 9.35764 11.4205 10.3891 10.3891C11.4205 9.35764 12 7.95869 12 6.5V6.5ZM7 7L7.001 9.504C7.001 9.63661 6.94832 9.76379 6.85455 9.85755C6.76079 9.95132 6.63361 10.004 6.501 10.004C6.36839 10.004 6.24121 9.95132 6.14745 9.85755C6.05368 9.76379 6.001 9.63661 6.001 9.504V7H3.496C3.36339 7 3.23621 6.94732 3.14245 6.85355C3.04868 6.75979 2.996 6.63261 2.996 6.5C2.996 6.36739 3.04868 6.24021 3.14245 6.14645C3.23621 6.05268 3.36339 6 3.496 6H6V3.5C6 3.36739 6.05268 3.24021 6.14645 3.14645C6.24021 3.05268 6.36739 3 6.5 3C6.63261 3 6.75979 3.05268 6.85355 3.14645C6.94732 3.24021 7 3.36739 7 3.5V6H9.503C9.63561 6 9.76278 6.05268 9.85655 6.14645C9.95032 6.24021 10.003 6.36739 10.003 6.5C10.003 6.63261 9.95032 6.75979 9.85655 6.85355C9.76278 6.94732 9.63561 7 9.503 7H7.001H7Z" fill="#128087"/>
<path d="M17.75 4.5H12.687C12.516 3.97165 12.2777 3.46751 11.978 3H17.75C18.612 3 19.4386 3.34241 20.0481 3.9519C20.6576 4.5614 21 5.38805 21 6.25V13.129C20.9997 13.7254 20.7627 14.2973 20.341 14.719L14.72 20.341C14.5111 20.5499 14.263 20.7157 13.99 20.8287C13.7171 20.9418 13.4245 21 13.129 21H6.25C5.38805 21 4.5614 20.6576 3.9519 20.0481C3.34241 19.4386 3 18.612 3 17.75V11.978C3.463 12.275 3.967 12.514 4.5 12.687V17.75C4.5 18.716 5.284 19.5 6.25 19.5H13V16.25C12.9999 15.4199 13.3176 14.6212 13.8877 14.0178C14.4578 13.4144 15.2372 13.052 16.066 13.005L16.25 13H19.5V6.25C19.5 5.78587 19.3156 5.34075 18.9874 5.01256C18.6592 4.68437 18.2141 4.5 17.75 4.5ZM18.439 14.5H16.25C15.8107 14.5 15.3874 14.6653 15.0643 14.963C14.7412 15.2608 14.5419 15.6691 14.506 16.107L14.5 16.25V18.439L18.439 14.5Z" fill="#128087"/>
</svg>
