<svg width="24" height="24" viewBox="0 0 24 24" fill="none" xmlns="http://www.w3.org/2000/svg">
<path d="M3.687 7.77263C3.59153 7.68241 3.47923 7.61188 3.3565 7.56506C3.23377 7.51825 3.10302 7.49606 2.97172 7.49978C2.84042 7.50349 2.71113 7.53303 2.59125 7.58671C2.47136 7.64039 2.36322 7.71716 2.273 7.81263C2.18279 7.9081 2.11226 8.0204 2.06544 8.14313C2.01863 8.26586 1.99644 8.39661 2.00016 8.52791C2.00387 8.65921 2.03341 8.7885 2.08709 8.90838C2.14077 9.02827 2.21753 9.13641 2.313 9.22663L11.313 17.7266C11.4987 17.9022 11.7445 18 12 18C12.2555 18 12.5013 17.9022 12.687 17.7266L21.688 9.22663C21.7856 9.137 21.8643 9.02889 21.9198 8.90856C21.9752 8.78823 22.0062 8.6581 22.0109 8.5257C22.0156 8.39331 21.9939 8.2613 21.9472 8.13734C21.9004 8.01338 21.8295 7.89995 21.7386 7.80363C21.6476 7.70731 21.5384 7.63002 21.4173 7.57625C21.2963 7.52249 21.1657 7.49332 21.0333 7.49043C20.9008 7.48755 20.7691 7.51101 20.6458 7.55945C20.5225 7.6079 20.4101 7.68036 20.315 7.77263L12 15.6246L3.687 7.77263V7.77263Z" fill="#128087"/>
</svg>
