<svg width="24" height="24" viewBox="0 0 24 24" fill="none" xmlns="http://www.w3.org/2000/svg">
<path d="M8.49992 16.586L4.70692 12.793C4.51832 12.6109 4.26571 12.5101 4.00352 12.5124C3.74132 12.5146 3.49051 12.6198 3.3051 12.8052C3.11969 12.9906 3.01452 13.2414 3.01224 13.5036C3.00997 13.7658 3.11076 14.0184 3.29292 14.207L7.79292 18.707C7.98045 18.8945 8.23475 18.9998 8.49992 18.9998C8.76508 18.9998 9.01939 18.8945 9.20692 18.707L20.2069 7.70704C20.3891 7.51844 20.4899 7.26584 20.4876 7.00364C20.4853 6.74144 20.3801 6.49063 20.1947 6.30522C20.0093 6.11981 19.7585 6.01465 19.4963 6.01237C19.2341 6.01009 18.9815 6.11088 18.7929 6.29304L8.49992 16.586Z" fill="#128087"/>
</svg>
