<svg width="290" height="186" viewBox="0 0 290 186" fill="none" xmlns="http://www.w3.org/2000/svg">
<path fill-rule="evenodd" clip-rule="evenodd" d="M209.603 46.0806L219.934 24.3823L257.126 42.09L246.795 63.7883L209.603 46.0806ZM210.355 45.8136L246.528 63.0362L256.374 42.357L220.201 25.1344L210.355 45.8136Z" fill="#475569"/>
<path fill-rule="evenodd" clip-rule="evenodd" d="M224.306 28.5988L251.151 41.3679L250.972 41.6387C250.915 41.7253 250.865 41.8161 250.822 41.9103L250.82 41.9139C250.53 42.5199 250.491 43.216 250.712 43.8503C250.934 44.4844 251.397 45.0052 252.001 45.2992C252.096 45.3449 252.194 45.3844 252.294 45.4174L252.598 45.5174L246.529 58.2622L246.259 58.087C246.169 58.0288 246.076 57.9756 245.98 57.9277C245.371 57.6389 244.671 57.6037 244.035 57.83C243.399 58.0563 242.879 58.5258 242.589 59.1353C242.578 59.1593 242.566 59.1806 242.558 59.1946L242.547 59.2145C242.547 59.2145 242.547 59.2145 242.547 59.2145L242.547 59.6243L215.647 46.8228L215.815 46.5544M216.437 46.574C216.75 45.8523 216.779 45.0376 216.516 44.2937C216.24 43.5154 215.667 42.8782 214.922 42.5219L214.92 42.5207C214.899 42.5113 214.879 42.5021 214.859 42.4932L220.39 30.8655C220.411 30.8761 220.433 30.8865 220.455 30.8965C221.199 31.2503 222.054 31.2943 222.831 31.0188C223.608 30.7432 224.244 30.1703 224.6 29.426C224.608 29.4091 224.616 29.3921 224.624 29.375L250.341 41.6077C250.33 41.629 250.32 41.6504 250.31 41.672C249.956 42.412 249.909 43.2618 250.18 44.0362C250.45 44.8113 251.016 45.4478 251.754 45.8069L251.755 45.8075C251.777 45.8179 251.799 45.828 251.821 45.8379L246.29 57.452C246.27 57.4416 246.25 57.4315 246.23 57.4215L246.225 57.4191C245.479 57.065 244.624 57.0215 243.846 57.2982C243.102 57.563 242.488 58.1001 242.126 58.7989L216.437 46.574ZM224.345 29.304L224.091 29.1825C223.8 29.792 223.279 30.2612 222.642 30.4869C222.006 30.7126 221.305 30.6763 220.696 30.3861L220.693 30.3847C220.598 30.3413 220.508 30.2908 220.421 30.2338L220.15 30.0557L214.078 42.8211L214.388 42.9183C214.488 42.9497 214.585 42.9875 214.68 43.0316C215.289 43.3236 215.758 43.8451 215.984 44.4821C216.209 45.1195 216.173 45.8204 215.883 46.431M224.345 29.304L224.091 29.1815C224.135 29.0905 224.173 28.9969 224.205 28.9011L224.306 28.5988M235.261 40.156C234.483 39.7818 233.611 39.6471 232.756 39.7689C231.902 39.8908 231.102 40.2637 230.459 40.8405C229.817 41.4173 229.36 42.1719 229.146 43.0087C228.933 43.8454 228.973 44.7267 229.261 45.5408C229.549 46.3548 230.073 47.065 230.765 47.5812C231.457 48.0974 232.287 48.3965 233.15 48.4405C234.012 48.4845 234.868 48.2715 235.609 47.8284C236.35 47.3853 236.943 46.7321 237.313 45.9516L237.415 45.7352C237.6 45.2846 237.707 44.8056 237.733 44.3182C237.764 43.747 237.681 43.1753 237.491 42.6359C237.3 42.0965 237.006 41.5998 236.623 41.1744C236.241 40.7489 235.778 40.403 235.262 40.1563L235.261 40.156ZM237.286 47.0749V47.3312L237.822 46.2087C238.101 45.6258 238.262 44.9936 238.297 44.3483C238.331 43.703 238.238 43.0573 238.023 42.448C237.808 41.8386 237.475 41.2777 237.043 40.7971C236.611 40.3166 236.089 39.9259 235.506 39.6473C234.627 39.2247 233.642 39.0726 232.677 39.2102C231.711 39.3478 230.808 39.7691 230.082 40.4205C229.357 41.0719 228.84 41.9242 228.6 42.8692C228.359 43.8143 228.404 44.8097 228.729 45.7291C229.055 46.6485 229.646 47.4506 230.428 48.0336C231.209 48.6167 232.147 48.9545 233.121 49.0042C234.095 49.0539 235.062 48.8132 235.899 48.3128C236.438 47.9903 236.908 47.5693 237.286 47.0749Z" fill="#475569"/>
<path fill-rule="evenodd" clip-rule="evenodd" d="M25.7098 53.6714L36.0408 31.9731L73.2327 49.6808L62.9017 71.3792L25.7098 53.6714ZM26.462 53.4044L62.6348 70.627L72.4805 49.9478L36.3078 32.7253L26.462 53.4044Z" fill="#475569"/>
<path fill-rule="evenodd" clip-rule="evenodd" d="M40.3914 36.1779L67.2298 48.9585L67.0483 49.2298C66.9915 49.3147 66.9412 49.4038 66.8978 49.4963L66.8963 49.4996C66.7497 49.8022 66.6644 50.1308 66.6454 50.4665C66.6264 50.8022 66.674 51.1383 66.7855 51.4555C66.8969 51.7728 67.0701 52.0648 67.2949 52.3148C67.5192 52.5642 67.7906 52.7668 68.0933 52.9111C68.188 52.9541 68.285 52.9895 68.3952 53.0278L68.693 53.1314L62.6193 65.8483L62.349 65.6705C62.2624 65.6135 62.1715 65.563 62.0774 65.5196L62.0739 65.518C61.772 65.3737 61.4447 65.2904 61.1107 65.2728C60.7766 65.2552 60.4424 65.3037 60.1271 65.4155C59.8118 65.5273 59.5216 65.7002 59.2732 65.9243C59.0263 66.1471 58.8254 66.4161 58.682 66.7162L58.5008 67.1433L31.7553 54.4102L31.8981 54.1485C31.9096 54.1275 31.9193 54.1101 31.9278 54.0948C31.9464 54.0616 31.9593 54.0386 31.9722 54.0101L31.9744 54.0052C32.1187 53.7034 32.202 53.3761 32.2196 53.042C32.2372 52.7079 32.1887 52.3737 32.0769 52.0584C31.9651 51.7431 31.7922 51.453 31.5681 51.2046C31.3446 50.9568 31.0745 50.7554 30.7733 50.6119C30.6799 50.5697 30.584 50.5334 30.486 50.5033L30.1736 50.4073L36.2469 37.6549L36.5175 37.833C36.6041 37.89 36.6949 37.9404 36.7891 37.9839L36.7926 37.9855C37.0944 38.1297 37.4217 38.2131 37.7558 38.2307C38.0899 38.2482 38.4241 38.1997 38.7394 38.088C39.0547 37.9762 39.3449 37.8033 39.5933 37.5792C39.8416 37.3551 40.0434 37.0842 40.1869 36.7821L40.4418 36.9032L40.1884 36.779C40.233 36.6879 40.2698 36.5931 40.2983 36.4957L40.3914 36.1779ZM40.696 37.0258C40.5206 37.3944 40.2744 37.7248 39.9713 37.9982C39.6678 38.272 39.3133 38.4833 38.928 38.6199C38.5428 38.7565 38.1343 38.8157 37.7261 38.7942C37.3186 38.7728 36.9193 38.6713 36.5509 38.4955C36.5293 38.4855 36.5078 38.4752 36.4864 38.4646L30.9565 50.0759C30.974 50.0835 30.9914 50.0912 31.0087 50.099L31.0132 50.1011C31.3824 50.2765 31.7134 50.523 31.9872 50.8265C32.261 51.13 32.4722 51.4845 32.6088 51.8698C32.7454 52.2551 32.8047 52.6635 32.7832 53.0717C32.7636 53.4448 32.6768 53.811 32.5275 54.1528L58.2174 66.3833C58.3887 66.0526 58.6182 65.7551 58.8952 65.5052C59.1987 65.2314 59.5532 65.0202 59.9385 64.8836C60.3237 64.747 60.7321 64.6877 61.1403 64.7092C61.5478 64.7306 61.9471 64.8321 62.3154 65.0079C62.3372 65.0179 62.3589 65.0283 62.3804 65.039L67.9157 53.4495C67.8964 53.4413 67.877 53.4328 67.8576 53.4239L67.8532 53.4219C67.4823 53.2456 67.1499 52.9976 66.8753 52.6922C66.6007 52.3868 66.3892 52.0301 66.253 51.6427C66.1168 51.2552 66.0587 50.8446 66.0819 50.4346C66.1051 50.0251 66.209 49.6243 66.3876 49.2552C66.3968 49.2354 66.4064 49.2157 66.4162 49.1961L40.7259 36.9622C40.7162 36.9835 40.7063 37.0047 40.696 37.0258ZM51.3397 47.7411C50.5615 47.3729 49.6916 47.2436 48.84 47.3695C47.9882 47.4954 47.1929 47.871 46.5544 48.4487C45.916 49.0265 45.4631 49.7804 45.253 50.6154C45.043 51.4505 45.0851 52.329 45.374 53.1401C45.663 53.9512 46.1859 54.6584 46.8767 55.1724C47.5674 55.6865 48.395 55.9842 49.2549 56.0281C50.1148 56.072 50.9685 55.86 51.708 55.419C52.4475 54.978 53.0396 54.3276 53.4097 53.5502C53.6552 53.0329 53.7964 52.4724 53.8253 51.9005C53.8542 51.3286 53.7701 50.7565 53.5779 50.2171C53.3857 49.6776 53.0891 49.1813 52.7051 48.7565C52.3211 48.3317 51.8571 47.9866 51.3397 47.7411ZM53.9194 53.7925C54.1968 53.2082 54.3563 52.5749 54.389 51.929C54.4216 51.283 54.3266 50.6369 54.1096 50.0277C53.8925 49.4184 53.5575 48.8578 53.1238 48.378C52.69 47.8982 52.166 47.5085 51.5817 47.2312C50.7026 46.8152 49.7196 46.669 48.7574 46.8112C47.7953 46.9534 46.8969 47.3777 46.1758 48.0303C45.4546 48.6828 44.9431 49.5345 44.7057 50.4777C44.4684 51.4209 44.516 52.4133 44.8424 53.3295C45.1688 54.2457 45.7595 55.0445 46.5397 55.6252C47.32 56.2058 48.2548 56.5422 49.2262 56.5918C50.1975 56.6413 51.1617 56.4019 51.997 55.9037C52.8324 55.4055 53.5014 54.6707 53.9194 53.7925Z" fill="#475569"/>
<path fill-rule="evenodd" clip-rule="evenodd" d="M256.741 76.1931L280.374 80.5561L272.896 121.064L249.263 116.701L256.741 76.1931ZM257.194 76.8505L249.92 116.248L272.443 120.406L279.717 81.0086L257.194 76.8505Z" fill="#475569"/>
<path fill-rule="evenodd" clip-rule="evenodd" d="M277.421 85.8728L272.046 115.097L271.74 114.997C271.641 114.965 271.537 114.937 271.432 114.914C270.768 114.794 270.084 114.941 269.528 115.324C268.971 115.707 268.589 116.296 268.466 116.96C268.448 117.063 268.437 117.167 268.431 117.271L268.413 117.591L254.544 115.034L254.629 114.735C254.659 114.63 254.687 114.524 254.709 114.416C254.771 114.086 254.767 113.747 254.697 113.418C254.627 113.089 254.492 112.777 254.3 112.5C254.108 112.223 253.863 111.987 253.58 111.806C253.296 111.624 252.979 111.501 252.648 111.443L252.639 111.442L252.631 111.44C252.591 111.43 252.55 111.424 252.509 111.423L252.186 111.408L257.573 82.2475L258.024 82.3576C258.686 82.4775 259.369 82.3309 259.924 81.9494C260.481 81.5669 260.863 80.9794 260.988 80.3157C261.005 80.2116 261.017 80.1065 261.022 80.001L261.038 79.6791L274.91 82.2417L274.825 82.5404C274.793 82.6506 274.765 82.7496 274.744 82.8544C274.683 83.1831 274.688 83.5204 274.757 83.8473C274.827 84.175 274.961 84.4858 275.151 84.7617C275.341 85.0377 275.584 85.2734 275.865 85.4555C276.147 85.6375 276.461 85.7623 276.791 85.8227M258.021 82.9291L252.852 110.908C253.218 110.985 253.568 111.128 253.884 111.33C254.23 111.552 254.53 111.84 254.764 112.179C254.998 112.517 255.163 112.898 255.249 113.301C255.335 113.703 255.34 114.118 255.264 114.523L255.263 114.527C255.258 114.548 255.254 114.569 255.249 114.59L267.9 116.923C267.904 116.903 267.907 116.882 267.91 116.862L267.911 116.859C268.061 116.047 268.528 115.328 269.208 114.859C269.888 114.39 270.727 114.211 271.539 114.36L271.545 114.361L271.55 114.362C271.568 114.366 271.587 114.37 271.605 114.375L276.752 86.3886C276.731 86.3853 276.71 86.3817 276.689 86.3778C276.287 86.3041 275.902 86.1517 275.559 85.9293C275.215 85.7069 274.919 85.419 274.687 85.0819C274.454 84.7448 274.291 84.3653 274.206 83.965C274.12 83.5647 274.115 83.1515 274.189 82.749L274.19 82.7438C274.194 82.7239 274.198 82.7043 274.203 82.6849L261.554 80.3483C261.551 80.3695 261.548 80.3907 261.544 80.4119L261.543 80.4168C261.392 81.2284 260.925 81.9469 260.244 82.4145C259.594 82.8615 258.799 83.0445 258.021 82.9291ZM276.791 85.8227C276.892 85.8412 276.995 85.8529 277.098 85.8577L277.421 85.8728M269.09 99.4418C269.247 98.5938 269.149 97.7182 268.808 96.9258C268.468 96.1334 267.9 95.4597 267.176 94.9902C266.452 94.5206 265.606 94.2762 264.743 94.2879C263.881 94.2995 263.041 94.5667 262.331 95.0556C261.62 95.5446 261.07 96.2333 260.751 97.0347C260.432 97.836 260.358 98.7141 260.538 99.5576C260.718 100.401 261.144 101.172 261.762 101.774C262.333 102.329 263.045 102.717 263.818 102.896L264.011 102.931C265.147 103.141 266.32 102.892 267.272 102.238C268.225 101.583 268.878 100.578 269.09 99.4418ZM264.342 103.547L264.349 103.572L263.909 103.491C262.951 103.314 262.067 102.858 261.369 102.178C260.67 101.499 260.189 100.628 259.986 99.6754C259.783 98.7226 259.867 97.731 260.227 96.8259C260.587 95.9208 261.208 95.1429 262.011 94.5907C262.813 94.0385 263.762 93.7367 264.736 93.7235C265.71 93.7104 266.666 93.9864 267.483 94.5168C268.3 95.0471 268.942 95.8079 269.327 96.7029C269.712 97.598 269.822 98.587 269.645 99.5449C269.406 100.828 268.667 101.964 267.592 102.703C266.637 103.359 265.486 103.654 264.342 103.547Z" fill="#475569"/>
<path fill-rule="evenodd" clip-rule="evenodd" d="M167.181 44.0228L153.076 24.5655L186.426 0.388237L200.532 19.8455L167.181 44.0228ZM167.307 43.2346L199.743 19.7198L186.301 1.17642L153.864 24.6912L167.307 43.2346Z" fill="#475569"/>
<path fill-rule="evenodd" clip-rule="evenodd" d="M182.876 5.33179L183.031 5.60913C183.081 5.69893 183.137 5.7855 183.198 5.86833L183.199 5.86971C183.596 6.41599 184.194 6.78258 184.861 6.8892C185.527 6.99571 186.208 6.83414 186.756 6.43985C186.841 6.37658 186.922 6.3086 186.999 6.23625L187.232 6.01779L195.535 17.4318L195.271 17.5904C195.25 17.6027 195.23 17.6146 195.211 17.6262C195.132 17.6733 195.06 17.7157 194.991 17.7642C194.445 18.1623 194.079 18.7603 193.974 19.4275C193.868 20.093 194.03 20.7731 194.424 21.3196L194.715 21.677L170.708 39.082L170.554 38.8029C170.531 38.762 170.506 38.7225 170.479 38.6846C170.082 38.1374 169.483 37.7701 168.816 37.6635C168.148 37.5569 167.465 37.7194 166.918 38.1153C166.833 38.1782 166.752 38.246 166.675 38.3184L166.441 38.5384L158.151 27.1012L158.443 26.9509C158.534 26.9041 158.621 26.8501 158.703 26.7892L158.705 26.7872C159.253 26.3907 159.62 25.7931 159.727 25.1259C159.833 24.4595 159.671 23.7781 159.276 23.2311C159.215 23.1507 159.149 23.0747 159.078 23.0035L158.844 22.7697L182.876 5.33179ZM159.503 23.0636L159.731 22.8981C160.215 23.5666 160.414 24.4 160.284 25.215C160.154 26.0294 159.706 26.7589 159.038 27.2432C159.019 27.2572 159 27.271 158.981 27.2844L166.531 37.7002C166.548 37.687 166.565 37.6739 166.583 37.6609L166.585 37.659C167.255 37.1748 168.089 36.976 168.905 37.1062C169.684 37.2307 170.387 37.6464 170.871 38.267L193.908 21.5654C193.469 20.9132 193.293 20.118 193.416 19.3392C193.546 18.5235 193.993 17.7924 194.661 17.3064L194.665 17.3033C194.683 17.2911 194.7 17.2792 194.718 17.2675L187.143 6.85445C187.126 6.86771 187.109 6.88081 187.091 6.89375L187.088 6.89632C186.419 7.37887 185.586 7.57669 184.772 7.4465C183.957 7.31635 183.228 6.869 182.743 6.20237C182.731 6.18569 182.719 6.16888 182.707 6.15196L159.695 22.85C159.706 22.8646 159.717 22.8792 159.728 22.894L159.503 23.0636ZM177.486 17.9059C176.347 17.724 175.182 18.002 174.248 18.6788C173.55 19.1846 173.019 19.8857 172.72 20.6935C172.421 21.5013 172.369 22.3796 172.569 23.2173C172.769 24.055 173.214 24.8145 173.846 25.3998C174.478 25.9851 175.269 26.3699 176.119 26.5055C176.97 26.6412 177.842 26.5216 178.624 26.1619C179.407 25.8022 180.065 25.2185 180.516 24.4847C180.967 23.7509 181.19 22.8998 181.158 22.0391C181.127 21.2259 180.869 20.4386 180.414 19.7658H180.407L180.323 19.6492C179.646 18.715 178.625 18.0879 177.486 17.9059ZM173.917 18.2218C174.972 17.4571 176.288 17.1431 177.575 17.3486C178.814 17.5466 179.929 18.2105 180.693 19.2015H180.705L180.79 19.3181C181.36 20.106 181.685 21.0455 181.722 22.0177C181.759 22.9899 181.506 23.9513 180.997 24.7802C180.488 25.6091 179.744 26.2684 178.86 26.6747C177.976 27.081 176.991 27.2161 176.03 27.0628C175.07 26.9096 174.176 26.4749 173.462 25.8138C172.748 25.1527 172.247 24.2948 172.02 23.3485C171.794 22.4023 171.853 21.4102 172.191 20.4977C172.528 19.5852 173.129 18.7931 173.917 18.2218Z" fill="#475569"/>
<path d="M57.0222 127.439H0.282227V138.542H57.0222V127.439Z" fill="white"/>
<path fill-rule="evenodd" clip-rule="evenodd" d="M0 127.439C0 127.284 0.126339 127.157 0.282187 127.157H57.0222C57.178 127.157 57.3043 127.284 57.3043 127.439V138.542C57.3043 138.697 57.178 138.824 57.0222 138.824H0.282187C0.126339 138.824 0 138.697 0 138.542V127.439ZM0.564373 127.722V138.259H56.74V127.722H0.564373Z" fill="#475569"/>
<path d="M72.7326 115.774H15.9926V127.439H72.7326V115.774Z" fill="white"/>
<path fill-rule="evenodd" clip-rule="evenodd" d="M15.7105 115.774C15.7105 115.618 15.8368 115.492 15.9927 115.492H72.7327C72.8885 115.492 73.0149 115.618 73.0149 115.774V127.439C73.0149 127.595 72.8885 127.722 72.7327 127.722H15.9927C15.8368 127.722 15.7105 127.595 15.7105 127.439V115.774ZM16.2749 116.056V127.157H72.4505V116.056H16.2749Z" fill="#475569"/>
<path d="M88.448 104.104H31.7081V115.769H88.448V104.104Z" fill="white"/>
<path fill-rule="evenodd" clip-rule="evenodd" d="M31.4258 104.104C31.4258 103.948 31.5522 103.822 31.708 103.822H88.448C88.6039 103.822 88.7302 103.948 88.7302 104.104V115.769C88.7302 115.925 88.6039 116.051 88.448 116.051H31.708C31.5522 116.051 31.4258 115.925 31.4258 115.769V104.104ZM31.9902 104.386V115.487H88.1658V104.386H31.9902Z" fill="#475569"/>
<path d="M104.159 92.4385H47.4186V104.104H104.159V92.4385Z" fill="white"/>
<path fill-rule="evenodd" clip-rule="evenodd" d="M47.1364 92.4385C47.1364 92.2827 47.2627 92.1563 47.4185 92.1563H104.159C104.314 92.1563 104.441 92.2827 104.441 92.4385V104.104C104.441 104.26 104.314 104.386 104.159 104.386H47.4185C47.2627 104.386 47.1364 104.26 47.1364 104.104V92.4385ZM47.7007 92.7207V103.822H103.876V92.7207H47.7007Z" fill="#475569"/>
<path d="M120.457 184.728V92.4385H104.163V104.104H88.4481V115.774H72.7376V127.439H57.0222V184.728H120.457Z" fill="#475569"/>
<path fill-rule="evenodd" clip-rule="evenodd" d="M103.881 92.4385C103.881 92.2827 104.008 92.1563 104.163 92.1563H120.457C120.613 92.1563 120.739 92.2827 120.739 92.4385V184.728C120.739 184.884 120.613 185.01 120.457 185.01H57.0222C56.8663 185.01 56.74 184.884 56.74 184.728V127.439C56.74 127.284 56.8663 127.157 57.0222 127.157H72.4554V115.774C72.4554 115.618 72.5817 115.492 72.7376 115.492H88.1659V104.104C88.1659 103.948 88.2922 103.822 88.4481 103.822H103.881V92.4385ZM104.446 92.7207V104.104C104.446 104.26 104.319 104.386 104.163 104.386H88.7303V115.774C88.7303 115.93 88.6039 116.056 88.4481 116.056H73.0198V127.439C73.0198 127.595 72.8934 127.722 72.7376 127.722H57.3044V184.446H120.175V92.7207H104.446Z" fill="#475569"/>
<path d="M120.457 173.621H63.7167V184.723H120.457V173.621Z" fill="white"/>
<path fill-rule="evenodd" clip-rule="evenodd" d="M63.4346 173.621C63.4346 173.465 63.5609 173.339 63.7168 173.339H120.457C120.613 173.339 120.739 173.465 120.739 173.621V184.723C120.739 184.879 120.613 185.005 120.457 185.005H63.7168C63.5609 185.005 63.4346 184.879 63.4346 184.723V173.621ZM63.9989 173.903V184.441H120.175V173.903H63.9989Z" fill="#475569"/>
<path d="M48.0062 173.621H104.746V161.956H48.0062V173.621Z" fill="white"/>
<path fill-rule="evenodd" clip-rule="evenodd" d="M105.028 173.621C105.028 173.777 104.902 173.903 104.746 173.903H48.0063C47.8504 173.903 47.7241 173.777 47.7241 173.621V161.956C47.7241 161.8 47.8504 161.673 48.0063 161.673H104.746C104.902 161.673 105.028 161.8 105.028 161.956V173.621ZM104.464 173.339V162.238H48.2885V173.339H104.464Z" fill="#475569"/>
<path d="M32.2909 161.956H89.0309V150.285H32.2909V161.956Z" fill="white"/>
<path fill-rule="evenodd" clip-rule="evenodd" d="M89.313 161.956C89.313 162.111 89.1866 162.238 89.0308 162.238H32.2908C32.135 162.238 32.0086 162.111 32.0086 161.956V150.285C32.0086 150.129 32.135 150.003 32.2908 150.003H89.0308C89.1866 150.003 89.313 150.129 89.313 150.285V161.956ZM88.7486 161.673V150.567H32.573V161.673H88.7486Z" fill="#475569"/>
<path d="M16.5755 150.285H73.3155V138.62H16.5755V150.285Z" fill="white"/>
<path fill-rule="evenodd" clip-rule="evenodd" d="M73.5977 150.285C73.5977 150.441 73.4713 150.568 73.3155 150.568H16.5755C16.4196 150.568 16.2933 150.441 16.2933 150.285V138.62C16.2933 138.464 16.4196 138.338 16.5755 138.338H73.3155C73.4713 138.338 73.5977 138.464 73.5977 138.62V150.285ZM73.0333 150.003V138.902H16.8577V150.003H73.0333Z" fill="#475569"/>
<path d="M0.282227 184.728V138.62H16.5755V150.285H32.286V161.956H48.0014V173.621H63.7168V184.728H0.282227Z" fill="#475569"/>
<path fill-rule="evenodd" clip-rule="evenodd" d="M0 138.62C0 138.464 0.126339 138.338 0.282187 138.338H16.5755C16.7313 138.338 16.8577 138.464 16.8577 138.62V150.003H32.286C32.4418 150.003 32.5682 150.129 32.5682 150.285V161.673H48.0014C48.1572 161.673 48.2836 161.8 48.2836 161.956V173.339H63.7168C63.8726 173.339 63.9989 173.465 63.9989 173.621V184.728C63.9989 184.884 63.8726 185.01 63.7168 185.01H0.282187C0.126339 185.01 0 184.884 0 184.728V138.62ZM0.564373 138.902V184.446H63.4346V173.903H48.0014C47.8455 173.903 47.7192 173.777 47.7192 173.621V162.238H32.286C32.1301 162.238 32.0038 162.111 32.0038 161.956V150.567H16.5755C16.4196 150.567 16.2933 150.441 16.2933 150.285V138.902H0.564373Z" fill="#475569"/>
<path d="M130.197 65.7238C139.518 65.7238 147.074 58.1682 147.074 48.8478C147.074 39.5274 139.518 31.9717 130.197 31.9717C120.877 31.9717 113.321 39.5274 113.321 48.8478C113.321 58.1682 120.877 65.7238 130.197 65.7238Z" fill="white"/>
<path fill-rule="evenodd" clip-rule="evenodd" d="M130.197 32.2539C121.033 32.2539 113.604 39.6832 113.604 48.8478C113.604 58.0123 121.033 65.4417 130.197 65.4417C139.362 65.4417 146.791 58.0123 146.791 48.8478C146.791 39.6832 139.362 32.2539 130.197 32.2539ZM113.039 48.8478C113.039 39.3715 120.721 31.6895 130.197 31.6895C139.674 31.6895 147.356 39.3715 147.356 48.8478C147.356 58.324 139.674 66.006 130.197 66.006C120.721 66.006 113.039 58.324 113.039 48.8478Z" fill="#475569"/>
<path d="M131.902 65.7238C141.222 65.7238 148.778 58.1682 148.778 48.8478C148.778 39.5274 141.222 31.9717 131.902 31.9717C122.581 31.9717 115.026 39.5274 115.026 48.8478C115.026 58.1682 122.581 65.7238 131.902 65.7238Z" fill="white"/>
<path fill-rule="evenodd" clip-rule="evenodd" d="M131.902 32.2539C122.737 32.2539 115.308 39.6832 115.308 48.8478C115.308 58.0123 122.737 65.4417 131.902 65.4417C141.066 65.4417 148.496 58.0123 148.496 48.8478C148.496 39.6832 141.066 32.2539 131.902 32.2539ZM114.743 48.8478C114.743 39.3715 122.425 31.6895 131.902 31.6895C141.378 31.6895 149.06 39.3715 149.06 48.8478C149.06 58.324 141.378 66.006 131.902 66.006C122.425 66.006 114.743 58.324 114.743 48.8478Z" fill="#475569"/>
<path d="M142.03 58.9727C147.622 53.3805 147.622 44.3138 142.03 38.7217C136.438 33.1295 127.371 33.1295 121.779 38.7217C116.187 44.3138 116.187 53.3806 121.779 58.9727C127.371 64.5649 136.438 64.5649 142.03 58.9727Z" fill="white"/>
<path fill-rule="evenodd" clip-rule="evenodd" d="M121.978 38.9212C116.496 44.4032 116.496 53.2912 121.978 58.7732C127.46 64.2552 136.348 64.2552 141.83 58.7732C147.312 53.2912 147.312 44.4032 141.83 38.9212C136.348 33.4392 127.46 33.4392 121.978 38.9212ZM121.579 59.1723C115.877 53.4699 115.877 44.2245 121.579 38.5221C127.282 32.8197 136.527 32.8197 142.229 38.5221C147.932 44.2245 147.932 53.4699 142.229 59.1723C136.527 64.8746 127.282 64.8746 121.579 59.1723Z" fill="#475569"/>
<path d="M132.063 58.9166V57.0311C130.673 56.9789 129.633 56.5332 128.944 55.6942C128.255 54.8551 127.883 53.6046 127.827 51.9428L130.687 51.4531C130.7 52.022 130.77 52.5882 130.898 53.1427C130.974 53.5219 131.154 53.8727 131.417 54.1564C131.535 54.2699 131.675 54.3584 131.828 54.4165C131.981 54.4745 132.145 54.501 132.308 54.4943C132.475 54.5122 132.644 54.4837 132.796 54.412C132.948 54.3403 133.078 54.2282 133.17 54.0878C133.327 53.8014 133.406 53.479 133.4 53.1525C133.418 52.5396 133.247 51.9362 132.911 51.4237C132.539 50.8979 132.099 50.4237 131.603 50.0133L129.884 48.5441C129.506 48.1966 129.153 47.8236 128.826 47.4275C128.512 47.039 128.262 46.6025 128.087 46.1346C127.894 45.5808 127.801 44.9971 127.813 44.4108C127.78 43.868 127.86 43.3243 128.047 42.8137C128.234 42.303 128.524 41.8365 128.9 41.443C129.692 40.7025 130.725 40.273 131.809 40.2334V38.4312H132.788V40.2334C133.417 40.2456 134.033 40.4139 134.581 40.7231C135.025 40.9889 135.393 41.3651 135.648 41.8152C135.893 42.2667 136.069 42.7519 136.172 43.255C136.277 43.7522 136.346 44.2563 136.378 44.7634L133.479 45.1895C133.47 44.7447 133.429 44.3012 133.356 43.8623C133.311 43.5368 133.187 43.2274 132.994 42.9612C132.893 42.8487 132.766 42.7623 132.625 42.7094C132.483 42.6565 132.331 42.6387 132.181 42.6576C132.012 42.6556 131.845 42.6952 131.694 42.7729C131.544 42.8506 131.415 42.9641 131.319 43.1032C131.12 43.3902 131.017 43.7333 131.025 44.0827C131.001 44.618 131.158 45.1458 131.471 45.5812C131.781 45.97 132.12 46.335 132.485 46.6734L134.169 48.1425C134.615 48.5478 135.028 48.9884 135.403 49.4599C135.783 49.9363 136.09 50.466 136.314 51.0319C136.554 51.6568 136.672 52.3217 136.662 52.9908C136.671 53.6689 136.522 54.3396 136.226 54.9498C135.943 55.5311 135.508 56.0252 134.967 56.3798C134.388 56.7573 133.723 56.9814 133.033 57.0311V58.9362L132.063 58.9166Z" fill="white"/>
<path fill-rule="evenodd" clip-rule="evenodd" d="M131.527 38.4312C131.527 38.2754 131.653 38.149 131.809 38.149H132.788C132.944 38.149 133.07 38.2754 133.07 38.4312V39.9661C133.649 40.0168 134.212 40.1907 134.719 40.4774L134.726 40.4809C135.212 40.7716 135.614 41.1834 135.894 41.6759L135.896 41.6807C136.154 42.1564 136.34 42.6676 136.449 43.1977C136.556 43.7079 136.626 44.2252 136.66 44.7455C136.669 44.892 136.564 45.0212 136.419 45.0426L133.52 45.4686C133.44 45.4804 133.358 45.4572 133.296 45.4048C133.235 45.3525 133.198 45.276 133.197 45.195C133.188 44.7639 133.148 44.3339 133.078 43.9084L133.077 43.9012C133.039 43.6265 132.935 43.3652 132.774 43.1393C132.705 43.0657 132.621 43.009 132.526 42.9737C132.427 42.9368 132.321 42.9244 132.216 42.9375C132.203 42.9391 132.191 42.9399 132.178 42.9397C132.055 42.9383 131.933 42.9671 131.824 43.0236C131.715 43.0801 131.621 43.1625 131.551 43.2637L131.551 43.2643C131.385 43.502 131.3 43.7863 131.307 44.0758C131.307 44.0822 131.307 44.0887 131.307 44.0951C131.286 44.5649 131.423 45.0281 131.696 45.411C131.995 45.7855 132.322 46.1373 132.673 46.4635L134.359 47.9336C134.816 48.3491 135.239 48.8008 135.624 49.2842C135.624 49.2842 135.624 49.2841 135.624 49.2842C136.021 49.7822 136.342 50.3361 136.577 50.9278L136.578 50.9309C136.83 51.5881 136.954 52.2872 136.944 52.991C136.944 52.9897 136.944 52.9883 136.944 52.987L136.662 52.9908L136.944 52.995C136.944 52.9937 136.944 52.9923 136.944 52.991C136.953 53.7116 136.794 54.4244 136.48 55.0729C136.175 55.6999 135.705 56.2332 135.122 56.6157L135.122 56.6162C134.576 56.9718 133.959 57.2001 133.315 57.2857V57.0311H133.033L133.053 57.3126C133.141 57.3062 133.228 57.2973 133.315 57.2857V58.9361C133.315 59.012 133.285 59.0846 133.231 59.1377C133.176 59.1908 133.103 59.2198 133.027 59.2183L132.058 59.1987C131.904 59.1956 131.781 59.0702 131.781 58.9166V57.2977C131.87 57.3045 131.961 57.3096 132.053 57.3131L132.063 57.0311H131.781V57.2977C130.464 57.1976 129.432 56.7331 128.726 55.8732C127.981 54.9666 127.602 53.6449 127.545 51.9522C127.54 51.8113 127.641 51.6885 127.78 51.6647L130.64 51.175C130.721 51.1611 130.804 51.1832 130.867 51.2354C130.93 51.2877 130.968 51.3649 130.969 51.447C130.981 51.9966 131.049 52.5436 131.173 53.0793L131.175 53.0869C131.24 53.4125 131.394 53.7139 131.618 53.9584C131.616 53.9566 131.614 53.9548 131.612 53.953L131.417 54.1564L131.624 53.9645C131.622 53.9625 131.62 53.9604 131.618 53.9584C131.708 54.0429 131.813 54.1089 131.928 54.1526C132.046 54.1972 132.171 54.2175 132.297 54.2124C132.311 54.2118 132.324 54.2122 132.338 54.2137C132.454 54.2261 132.571 54.2064 132.676 54.1568C132.778 54.1087 132.865 54.0344 132.928 53.9416C132.927 53.9452 132.925 53.9487 132.923 53.9523L133.17 54.0878L132.935 53.9325C132.933 53.9356 132.931 53.9386 132.928 53.9416C133.058 53.7009 133.123 53.431 133.118 53.1576C133.118 53.1532 133.118 53.1487 133.118 53.1443C133.134 52.5909 132.98 52.0459 132.677 51.5826C132.678 51.5839 132.679 51.5853 132.68 51.5866L132.911 51.4237L132.675 51.5786C132.676 51.5799 132.676 51.5812 132.677 51.5826C132.321 51.0787 131.899 50.6242 131.423 50.2307L131.42 50.2278L129.701 48.7586C129.698 48.7564 129.696 48.7541 129.693 48.7518C129.306 48.3956 128.943 48.0131 128.609 47.607L128.607 47.605C128.274 47.193 128.009 46.73 127.823 46.2338L127.82 46.2274C127.618 45.6455 127.52 45.0324 127.53 44.4165C127.53 44.4202 127.531 44.4239 127.531 44.4276L127.813 44.4108L127.53 44.4054C127.53 44.4091 127.53 44.4128 127.53 44.4165C127.497 43.8386 127.583 43.2601 127.782 42.7166C127.982 42.1696 128.293 41.6697 128.696 41.2482C128.699 41.2443 128.703 41.2405 128.707 41.2369C129.482 40.5121 130.475 40.0677 131.527 39.9691V40.2334H131.809L131.798 39.9514C131.707 39.9547 131.617 39.9606 131.527 39.9691V38.4312ZM132.091 38.7134V40.2334C132.091 40.3852 131.971 40.5099 131.819 40.5154C130.806 40.5524 129.84 40.953 129.098 41.6437C128.752 42.0078 128.485 42.439 128.312 42.9107C128.138 43.3849 128.064 43.8898 128.094 44.394C128.095 44.4014 128.095 44.4088 128.095 44.4162C128.084 44.968 128.171 45.5173 128.352 46.0387C128.517 46.4766 128.751 46.8852 129.045 47.249C129.362 47.6334 129.705 47.9955 130.071 48.333L131.785 49.7973C132.299 50.2232 132.755 50.7153 133.141 51.2608L133.147 51.2688C133.514 51.8278 133.701 52.4857 133.683 53.154C133.688 53.5273 133.597 53.8958 133.418 54.2234C133.414 54.2301 133.41 54.2367 133.406 54.2432C133.285 54.4267 133.115 54.5735 132.917 54.6672C132.724 54.758 132.511 54.7958 132.299 54.777C132.104 54.7822 131.91 54.7494 131.728 54.6803C131.539 54.6087 131.367 54.4997 131.221 54.3598C131.217 54.3561 131.214 54.3522 131.21 54.3483C130.913 54.0275 130.709 53.631 130.622 53.2023C130.515 52.7363 130.447 52.2624 130.418 51.7854L128.12 52.179C128.202 53.6833 128.561 54.7828 129.162 55.5151C129.786 56.2751 130.74 56.699 132.074 56.7491C132.226 56.7548 132.346 56.8794 132.346 57.0311V58.64L132.751 58.6482V57.0311C132.751 56.8831 132.865 56.7603 133.013 56.7496C133.655 56.7034 134.274 56.4948 134.813 56.1435C135.311 55.8168 135.712 55.3618 135.972 54.8264C136.249 54.2559 136.388 53.6287 136.38 52.9947L136.38 52.9867C136.389 52.354 136.278 51.7253 136.051 51.1345C135.837 50.5949 135.544 50.0899 135.183 49.6357C134.817 49.1767 134.416 48.7479 133.982 48.3533L132.299 46.886L132.293 46.8802C131.918 46.5323 131.569 46.157 131.25 45.7573C131.247 45.7535 131.244 45.7496 131.242 45.7457C130.894 45.2615 130.719 44.6751 130.743 44.0798C130.735 43.674 130.855 43.2759 131.087 42.9425C131.21 42.7654 131.374 42.6211 131.565 42.5223C131.75 42.4263 131.956 42.3759 132.165 42.3753C132.354 42.3546 132.545 42.3785 132.723 42.445C132.908 42.5139 133.073 42.6264 133.204 42.7728C133.211 42.7801 133.217 42.7878 133.222 42.7957C133.442 43.0983 133.583 43.4498 133.635 43.8197C133.692 44.1657 133.73 44.5145 133.749 44.8645L136.077 44.5225C136.04 44.1162 135.98 43.7124 135.896 43.3132L135.896 43.3115C135.799 42.8365 135.632 42.3785 135.401 41.9522C135.171 41.5465 134.839 41.2072 134.439 40.9671C133.933 40.682 133.364 40.5268 132.783 40.5155C132.629 40.5126 132.506 40.3871 132.506 40.2334V38.7134H132.091Z" fill="#475569"/>
<path d="M89.5108 46.7615L90.0446 71.5026L89.8291 89.0937L92.7087 88.6676C92.7087 88.6676 95.8038 72.1393 95.8038 71.1794C95.8038 70.2195 97.5081 57.9567 97.5081 57.9567L100.706 73.8435L102.366 89.0888L105.246 88.6627C105.246 88.6627 105.613 72.1344 105.613 69.1519C105.613 66.1695 105.466 46.9672 105.466 46.9672L96.4405 44.6263L89.5108 46.7615Z" fill="#475569"/>
<path fill-rule="evenodd" clip-rule="evenodd" d="M96.3574 44.3566C96.4074 44.3412 96.4607 44.34 96.5113 44.3532L105.537 46.6941C105.661 46.7261 105.747 46.8373 105.748 46.965L105.466 46.9672C105.748 46.965 105.748 46.9649 105.748 46.965L105.771 50.0121C105.785 51.8589 105.803 54.3524 105.822 56.9391C105.859 62.1118 105.895 67.6594 105.895 69.1519C105.895 70.6468 105.803 75.5284 105.712 80.0315C105.666 82.2841 105.62 84.4434 105.585 86.0396C105.568 86.8378 105.554 87.4951 105.544 87.9529L105.528 88.6688C105.528 88.6689 105.528 88.669 105.246 88.6627L105.528 88.6688C105.525 88.8063 105.423 88.9217 105.287 88.9419L102.408 89.3679C102.332 89.3792 102.254 89.359 102.194 89.3121C102.133 89.2652 102.094 89.1956 102.086 89.1193L100.427 73.8867L97.56 59.6446C97.5475 59.7356 97.5346 59.8295 97.5214 59.9261C97.3616 61.0906 97.1486 62.6531 96.9357 64.2455C96.7227 65.8381 96.5098 67.4599 96.3502 68.7432C96.2703 69.385 96.204 69.9412 96.1576 70.3663C96.1103 70.7994 96.086 71.0783 96.086 71.1794C96.086 71.2609 96.0711 71.4003 96.0489 71.5705C96.0258 71.7476 95.9921 71.9769 95.9497 72.2498C95.8647 72.7959 95.7435 73.522 95.5983 74.3648C95.3079 76.0506 94.9209 78.2077 94.5339 80.334C94.147 82.4604 93.76 84.5568 93.4698 86.1215C93.3247 86.9039 93.2038 87.5534 93.1192 88.0073L92.9862 88.7194C92.9861 88.7195 92.9861 88.7196 92.7088 88.6676L92.9862 88.7194C92.964 88.8377 92.8692 88.9291 92.7501 88.9468L89.8705 89.3728C89.7887 89.3849 89.7057 89.3606 89.6435 89.3062C89.5812 89.2518 89.546 89.1729 89.547 89.0902L89.7624 71.5039L89.2287 46.7676C89.226 46.6415 89.3072 46.529 89.4277 46.4918L96.3574 44.3566ZM92.4684 88.4179L92.5643 87.9038C92.649 87.4501 92.7698 86.8008 92.9149 86.0186C93.205 84.4543 93.5919 82.3586 93.9787 80.2329C94.3655 78.1072 94.7522 75.9522 95.0421 74.269C95.1871 73.4272 95.3077 72.7046 95.392 72.163C95.4342 71.8921 95.467 71.6679 95.4893 71.4975C95.5124 71.3201 95.5217 71.2178 95.5217 71.1794C95.5217 71.0405 95.5506 70.7263 95.5966 70.305C95.6434 69.8758 95.7102 69.3164 95.7901 68.6736C95.95 67.3877 96.1632 65.7638 96.3763 64.1707C96.5894 62.5774 96.8024 61.0143 96.9622 59.8494C97.0421 59.267 97.1087 58.7841 97.1553 58.4469L97.2285 57.9184C97.2285 57.9183 97.2286 57.9179 97.5081 57.9567L97.2286 57.9179C97.2475 57.7816 97.362 57.6788 97.4996 57.6747C97.6371 57.6705 97.7576 57.7661 97.7847 57.901L100.983 73.7878C100.984 73.7962 100.986 73.8045 100.987 73.813L102.615 88.7667L104.969 88.4184L104.979 87.9405C104.99 87.4828 105.004 86.8255 105.021 86.0275C105.056 84.4314 105.101 82.2723 105.147 80.02C105.239 75.5133 105.331 70.6395 105.331 69.1519C105.331 67.662 105.294 62.1172 105.257 56.9432C105.239 54.3565 105.221 51.8631 105.207 50.0163L105.186 47.186L96.4471 44.9195L89.7975 46.9685L90.3268 71.4965L90.3268 71.5061L90.1154 88.7661L92.4684 88.4179Z" fill="#475569"/>
<path d="M92.7088 88.6676C92.7088 88.6676 96.9743 91.4395 96.3377 92.0957C95.701 92.7519 92.175 92.0957 91.2151 91.988C90.7717 91.9707 90.3366 91.8624 89.9369 91.6696L89.8292 89.1084L92.7088 88.6676Z" fill="white"/>
<path fill-rule="evenodd" clip-rule="evenodd" d="M92.8625 88.431L92.7087 88.6676C92.8625 88.431 92.8624 88.431 92.8625 88.431L92.8659 88.4332L92.8754 88.4394L92.9116 88.4632C92.9432 88.484 92.9893 88.5144 93.0475 88.5534C93.164 88.6312 93.3295 88.7429 93.526 88.879C93.9185 89.1509 94.4368 89.5214 94.9362 89.9137C95.4325 90.3034 95.9228 90.7244 96.2509 91.0967C96.4127 91.2802 96.5525 91.4712 96.6263 91.6548C96.7001 91.8385 96.7333 92.0931 96.5402 92.2922C96.4105 92.4259 96.2306 92.5051 96.0503 92.5556C95.8654 92.6075 95.6506 92.6372 95.4224 92.6525C94.9657 92.683 94.4184 92.6576 93.8727 92.6094C93.1486 92.5455 92.3802 92.4354 91.8204 92.3552C91.556 92.3173 91.3381 92.2861 91.1934 92.2695C90.715 92.2495 90.2457 92.1319 89.8143 91.9238C89.7206 91.8786 89.6593 91.7855 89.6549 91.6815L89.5472 89.1202C89.5411 88.9765 89.6442 88.8512 89.7864 88.8294L92.666 88.3887C92.7345 88.3782 92.8044 88.3933 92.8625 88.431ZM92.6443 88.963L90.1217 89.3491L90.2115 91.4836C90.5334 91.617 90.8769 91.6924 91.226 91.706C91.2329 91.7063 91.2397 91.7068 91.2465 91.7076C91.423 91.7274 91.6645 91.7621 91.9495 91.8031C92.4976 91.882 93.2064 91.984 93.9224 92.0473C94.4578 92.0946 94.9713 92.117 95.3848 92.0893C95.5917 92.0755 95.7643 92.0497 95.8979 92.0122C96.0149 91.9794 96.0827 91.943 96.1186 91.9141C96.1164 91.9038 96.1118 91.888 96.1026 91.8653C96.065 91.7717 95.9761 91.6384 95.8275 91.4698C95.5349 91.1378 95.0781 90.7427 94.5876 90.3575C94.1003 89.9748 93.592 89.6113 93.2046 89.343C93.0111 89.2089 92.8483 89.099 92.734 89.0227C92.6995 88.9996 92.6694 88.9796 92.6443 88.963ZM96.1201 91.9305C96.1198 91.9303 96.1195 91.928 96.1203 91.9244C96.1208 91.9289 96.1204 91.9307 96.1201 91.9305Z" fill="#475569"/>
<path d="M105.246 88.6676C105.246 88.6676 109.511 91.4395 108.87 92.0957C108.228 92.7519 104.712 92.0957 103.752 91.988C103.309 91.9707 102.874 91.8624 102.474 91.6696L102.366 89.1084L105.246 88.6676Z" fill="white"/>
<path fill-rule="evenodd" clip-rule="evenodd" d="M105.4 88.431L105.246 88.6676C105.4 88.431 105.399 88.431 105.4 88.431L105.403 88.4332L105.412 88.4394L105.449 88.4632C105.48 88.484 105.526 88.5144 105.585 88.5534C105.701 88.6312 105.867 88.7429 106.063 88.879C106.455 89.1509 106.974 89.5214 107.473 89.9137C107.969 90.3035 108.459 90.7245 108.786 91.0969C108.948 91.2805 109.087 91.4716 109.16 91.6555C109.234 91.84 109.266 92.0946 109.072 92.293C108.942 92.426 108.762 92.5051 108.581 92.5557C108.396 92.6075 108.181 92.6372 107.953 92.6525C107.497 92.683 106.95 92.6576 106.405 92.6094C105.684 92.5456 104.917 92.4356 104.358 92.3554C104.094 92.3174 103.875 92.2861 103.73 92.2695C103.252 92.2495 102.783 92.1319 102.351 91.9238C102.258 91.8786 102.196 91.7855 102.192 91.6815L102.084 89.1202C102.078 88.9765 102.181 88.8512 102.323 88.8294L105.203 88.3887C105.272 88.3782 105.341 88.3933 105.4 88.431ZM105.181 88.963L102.659 89.3491L102.749 91.4836C103.07 91.617 103.414 91.6924 103.763 91.706C103.77 91.7063 103.777 91.7068 103.784 91.7076C103.961 91.7274 104.203 91.7623 104.488 91.8035C105.035 91.8823 105.741 91.9841 106.455 92.0473C106.99 92.0946 107.502 92.117 107.916 92.0893C108.122 92.0755 108.295 92.0497 108.429 92.0122C108.547 91.9792 108.615 91.9424 108.652 91.913C108.65 91.9028 108.645 91.8871 108.636 91.8645C108.599 91.7712 108.51 91.6381 108.362 91.4696C108.07 91.1377 107.614 90.7427 107.124 90.3575C106.637 89.9747 106.129 89.6113 105.742 89.3429C105.548 89.2089 105.385 89.099 105.271 89.0227C105.237 88.9996 105.206 88.9796 105.181 88.963ZM108.653 91.9292C108.653 91.9289 108.653 91.9267 108.653 91.923C108.654 91.9276 108.653 91.9294 108.653 91.9292Z" fill="#475569"/>
<path d="M127.23 31.4624L131.074 30.576C131.074 30.576 134.767 32.5349 135.075 32.8141C135.384 33.0932 134.767 33.1226 134.096 33.1226C133.044 32.9819 132.002 32.7741 130.976 32.5006C130.976 32.5006 132.587 32.9904 132.328 33.2303C132.182 33.3433 132.015 33.4247 131.836 33.4694C131.657 33.5141 131.471 33.521 131.29 33.4899C131.03 33.436 130.041 33.2793 130.041 33.2793C130.041 33.2793 128.327 33.2303 127.808 33.1226L127.289 33.0197L127.23 31.4624Z" fill="white"/>
<path fill-rule="evenodd" clip-rule="evenodd" d="M131.206 30.3267L131.366 30.4117C131.468 30.4659 131.613 30.5436 131.789 30.6377C132.141 30.8259 132.612 31.0799 133.094 31.3426C133.576 31.6052 134.068 31.8774 134.46 32.1017C134.656 32.2137 134.828 32.3149 134.963 32.3974C135.087 32.4742 135.203 32.5491 135.265 32.6048C135.317 32.652 135.376 32.7165 135.41 32.7999C135.45 32.8969 135.454 33.0158 135.389 33.1241C135.335 33.2154 135.253 33.2641 135.197 33.2901C135.137 33.318 135.072 33.3362 135.011 33.3491C134.777 33.3986 134.424 33.4048 134.096 33.4048C134.083 33.4048 134.071 33.404 134.058 33.4023C133.583 33.3387 133.109 33.2616 132.638 33.171C132.638 33.1879 132.637 33.2055 132.635 33.2235C132.621 33.3173 132.572 33.3888 132.519 33.4375C132.513 33.443 132.507 33.4483 132.501 33.4533C132.324 33.5903 132.121 33.689 131.904 33.7432C131.688 33.7974 131.462 33.8058 131.242 33.768L131.232 33.7662C131.11 33.7407 130.804 33.6892 130.522 33.6429C130.383 33.62 130.251 33.5988 130.155 33.5833L130.014 33.5608L130.013 33.5608L129.957 33.559C129.909 33.5575 129.839 33.5551 129.754 33.552C129.585 33.5457 129.353 33.5361 129.104 33.5232C128.619 33.4979 128.037 33.4582 127.752 33.3992L127.234 33.2966C127.105 33.2712 127.011 33.161 127.007 33.0304L126.948 31.4731C126.943 31.3377 127.034 31.2179 127.166 31.1874L131.011 30.301C131.077 30.2858 131.146 30.2949 131.206 30.3267ZM130.041 33.2793L130.085 33.0006L130.244 33.026C130.341 33.0416 130.473 33.0629 130.614 33.0859C130.887 33.1309 131.202 33.1838 131.342 33.2125C131.483 33.2362 131.628 33.2305 131.768 33.1956C131.813 33.1843 131.857 33.1699 131.901 33.1527C131.826 33.1154 131.738 33.0761 131.642 33.0365C131.465 32.9634 131.278 32.8969 131.134 32.8483C131.062 32.824 131.002 32.8045 130.959 32.7911C130.938 32.7843 130.922 32.7792 130.911 32.7757L130.898 32.7718L130.895 32.7709C130.776 32.7351 130.694 32.6255 130.694 32.5006H130.976L131.049 32.228C132.057 32.4968 133.081 32.7013 134.115 32.8404C134.29 32.8402 134.451 32.8377 134.588 32.8304C134.474 32.7616 134.336 32.6808 134.18 32.5915C133.793 32.3701 133.304 32.1001 132.824 31.8381C132.344 31.5762 131.873 31.323 131.523 31.1352C131.347 31.0413 131.202 30.9638 131.101 30.9098L131.035 30.8747L127.521 31.685L127.562 32.7863L127.865 32.8463C128.099 32.8948 128.633 32.9335 129.134 32.9596C129.378 32.9723 129.607 32.9817 129.775 32.988C129.859 32.9911 129.928 32.9934 129.975 32.995L130.03 32.9967L130.049 32.9972L130.041 33.2793ZM130.041 33.2793L130.049 32.9972C130.061 32.9976 130.073 32.9987 130.085 33.0006L130.041 33.2793Z" fill="#475569"/>
<path d="M102.361 16.2172C102.361 16.2172 93.6147 21.1144 92.4884 22.52C91.362 23.9255 90.9849 30.9825 90.2307 35.9679C89.7374 39.6791 89.4546 43.4151 89.3835 47.1582C89.3835 47.1582 95.6863 48.0055 99.1781 47.9124C101.309 47.847 103.424 47.5314 105.481 46.9721C105.481 46.9721 106.705 40.6693 106.984 39.729C107.263 38.7888 109.526 27.4858 109.526 27.4858L116.485 33.0344H127.23V31.4428C127.23 31.4428 118.728 29.4839 118.635 29.1754C118.542 28.8669 111.392 18.6413 109.227 17.4219C107.063 16.2025 103.87 15.0859 102.361 16.2172Z" fill="#14B8A6"/>
<path fill-rule="evenodd" clip-rule="evenodd" d="M105.612 15.663C106.902 15.9609 108.267 16.5573 109.366 17.176C109.671 17.3479 110.041 17.6635 110.447 18.0634C110.858 18.4678 111.32 18.9748 111.811 19.5454C112.793 20.6869 113.897 22.0945 114.933 23.4704C115.97 24.8469 116.942 26.1947 117.661 27.218C118.02 27.7296 118.317 28.1609 118.527 28.4747C118.632 28.6314 118.716 28.7602 118.777 28.8556C118.806 28.9031 118.832 28.9443 118.851 28.9775L118.852 28.979C118.854 28.9829 118.856 28.9875 118.859 28.9928C118.861 28.9937 118.863 28.9947 118.866 28.9958C118.92 29.0209 119.005 29.054 119.123 29.0946C119.356 29.1749 119.69 29.275 120.093 29.3881C120.899 29.6139 121.967 29.8869 123.035 30.1509C124.102 30.4147 125.167 30.6689 125.965 30.8573C126.364 30.9514 126.696 31.0291 126.928 31.0832C127.044 31.1103 127.136 31.1314 127.198 31.1458L127.293 31.1678C127.293 31.1678 127.293 31.1678 127.23 31.4428L127.293 31.1678C127.421 31.1973 127.512 31.3114 127.512 31.4428V33.0344C127.512 33.1903 127.386 33.3166 127.23 33.3166H116.485C116.421 33.3166 116.359 33.2949 116.309 33.2551L109.712 27.9948L109.705 28.0289C109.642 28.3398 109.553 28.7851 109.445 29.3223C109.228 30.3968 108.937 31.8393 108.636 33.3112C108.038 36.2431 107.399 39.3236 107.255 39.8093C107.12 40.2638 106.747 42.0568 106.405 43.7589C106.234 44.605 106.072 45.4218 105.953 46.0271C105.894 46.3297 105.845 46.5795 105.811 46.7536L105.758 47.0248L105.758 47.0256C105.758 47.0257 105.758 47.0259 105.481 46.9721L105.758 47.0256C105.737 47.1312 105.659 47.2162 105.555 47.2444C103.477 47.8095 101.339 48.1284 99.1867 48.1945L99.1855 48.1945C97.4203 48.2415 94.9561 48.0512 92.9434 47.851C91.9349 47.7507 91.0359 47.6474 90.389 47.5693C90.0655 47.5302 89.805 47.4974 89.6252 47.4743C89.5353 47.4628 89.4656 47.4537 89.4183 47.4475L89.3644 47.4404L89.3484 47.4382C89.3195 47.4346 89.2909 47.4265 89.2636 47.4137C89.1628 47.3664 89.0992 47.2642 89.1013 47.1529C89.1726 43.3991 89.4563 39.6524 89.9509 35.9307L89.9516 35.9257C90.1816 34.4052 90.3756 32.6998 90.5671 31.015C90.6894 29.9389 90.8108 28.8712 90.94 27.8655C91.105 26.5821 91.2825 25.4023 91.4908 24.4526C91.5949 23.9777 91.7079 23.5549 91.8329 23.2025C91.9564 22.8544 92.0981 22.5556 92.2681 22.3435C92.4315 22.1396 92.7148 21.892 93.0633 21.6224C93.4172 21.3486 93.857 21.0381 94.3489 20.7079C95.3329 20.0473 96.5364 19.3006 97.7017 18.5997C98.8676 17.8984 99.9979 17.2413 100.836 16.7596C101.256 16.5187 101.602 16.3217 101.844 16.1848C101.965 16.1163 102.06 16.0629 102.124 16.0266L102.207 15.9799C103.068 15.346 104.348 15.3714 105.612 15.663ZM102.361 16.2172C102.499 16.4634 102.499 16.4634 102.499 16.4634L102.401 16.5184C102.337 16.5545 102.243 16.6077 102.122 16.6759C101.881 16.8123 101.536 17.0088 101.118 17.249C100.281 17.7295 99.1542 18.3846 97.9926 19.0833C96.8305 19.7824 95.6361 20.5235 94.6634 21.1765C94.1769 21.5031 93.7486 21.8058 93.4086 22.0688C93.0632 22.336 92.8267 22.549 92.7085 22.6964C92.5969 22.8357 92.4805 23.0649 92.3648 23.3912C92.2506 23.7132 92.1435 24.1113 92.0421 24.5735C91.8393 25.4981 91.6642 26.6578 91.4998 27.9374C91.373 28.9246 91.2524 29.9849 91.1302 31.0587C90.9374 32.7533 90.7409 34.4813 90.5101 36.0076C90.0295 39.6239 89.7493 43.264 89.6707 46.9112C89.6793 46.9123 89.688 46.9134 89.697 46.9145C89.8755 46.9375 90.1347 46.9701 90.4567 47.009C91.1007 47.0868 91.9956 47.1896 92.9993 47.2894C95.0108 47.4895 97.4439 47.6763 99.1704 47.6303C101.22 47.5673 103.256 47.2703 105.238 46.7452L105.257 46.6454C105.291 46.4711 105.34 46.2211 105.4 45.9181C105.519 45.3123 105.681 44.4946 105.851 43.6475C106.19 41.9631 106.57 40.1346 106.714 39.6487C106.849 39.1942 107.48 36.1531 108.083 33.1984C108.384 31.7271 108.675 30.2851 108.891 29.2108C109 28.6738 109.089 28.2286 109.152 27.9178L109.249 27.4309C109.249 27.4309 109.249 27.4304 109.526 27.4858L109.249 27.4309C109.269 27.3345 109.337 27.2545 109.429 27.2207C109.522 27.187 109.625 27.2038 109.702 27.2652L116.584 32.7523H126.947V31.6671C126.904 31.6571 126.855 31.6456 126.8 31.6329C126.567 31.5787 126.235 31.5009 125.835 31.4066C125.036 31.218 123.969 30.9632 122.899 30.6987C121.83 30.4344 120.755 30.1598 119.941 29.9315C119.535 29.8176 119.188 29.714 118.939 29.6282C118.815 29.5856 118.709 29.5451 118.628 29.5076C118.588 29.4893 118.546 29.4677 118.509 29.4426C118.491 29.4301 118.467 29.4122 118.444 29.3884C118.425 29.3697 118.393 29.3329 118.372 29.278C118.37 29.2745 118.367 29.2682 118.361 29.2585C118.348 29.2348 118.327 29.2009 118.299 29.1563C118.243 29.0674 118.162 28.9436 118.058 28.7888C117.851 28.4796 117.557 28.0519 117.199 27.5424C116.484 26.5236 115.515 25.1809 114.483 23.81C113.449 22.4385 112.354 21.0418 111.383 19.9134C110.898 19.3491 110.446 18.8548 110.051 18.4654C109.651 18.0714 109.325 17.8008 109.089 17.6677C108.023 17.0671 106.709 16.4954 105.485 16.213C104.242 15.9261 103.178 15.9573 102.531 16.4429C102.521 16.4504 102.51 16.4573 102.499 16.4634L102.361 16.2172Z" fill="#475569"/>
<path d="M103.209 13.4893L101.612 17.3435C101.612 17.3435 100.858 17.5345 101.049 19.038C101.24 20.5414 103.115 24.7727 103.772 24.6797C104.428 24.5866 106.499 18.9694 106.499 18.9694L103.209 13.4893Z" fill="white"/>
<path fill-rule="evenodd" clip-rule="evenodd" d="M103.188 13.208C103.294 13.2001 103.396 13.2527 103.45 13.3441L106.741 18.8242C106.785 18.8975 106.794 18.9868 106.764 19.0671L106.499 18.9694C106.764 19.0671 106.764 19.067 106.764 19.0671L106.758 19.0836L106.74 19.131C106.725 19.1725 106.702 19.2332 106.673 19.3105C106.615 19.4649 106.531 19.6855 106.429 19.9505C106.224 20.4801 105.943 21.1881 105.641 21.8998C105.341 22.6099 105.016 23.3298 104.724 23.8805C104.578 24.1548 104.436 24.3959 104.305 24.5747C104.239 24.6638 104.171 24.7456 104.1 24.8097C104.035 24.868 103.937 24.9413 103.811 24.9591C103.691 24.9761 103.584 24.9402 103.504 24.8978C103.422 24.855 103.347 24.7946 103.279 24.7294C103.143 24.5988 103.002 24.4158 102.861 24.2053C102.579 23.7814 102.27 23.1999 101.98 22.5767C101.404 21.3391 100.87 19.8717 100.769 19.0736C100.667 18.2749 100.811 17.7747 101.027 17.4653C101.134 17.3124 101.252 17.2157 101.35 17.1561C101.366 17.1466 101.381 17.138 101.395 17.1304L102.948 13.3814C102.989 13.2829 103.081 13.2158 103.188 13.208ZM101.682 17.617L101.683 17.6166L101.685 17.6161L101.688 17.6154L101.69 17.6146C101.69 17.6145 101.69 17.6146 101.689 17.6149C101.687 17.6156 101.684 17.6163 101.682 17.617ZM103.255 14.1147L101.873 17.4515C101.84 17.5313 101.772 17.5914 101.689 17.6149C101.688 17.6152 101.687 17.6157 101.685 17.6164C101.678 17.6193 101.664 17.6258 101.644 17.6376C101.606 17.6609 101.548 17.7058 101.49 17.7886C101.377 17.9506 101.239 18.2976 101.329 19.0024C101.418 19.7078 101.918 21.1077 102.492 22.3384C102.776 22.9493 103.071 23.5021 103.331 23.8924C103.462 24.089 103.577 24.233 103.669 24.3219C103.696 24.3472 103.718 24.3653 103.735 24.378C103.73 24.3827 103.726 24.3869 103.721 24.3908C103.707 24.4036 103.699 24.409 103.697 24.4104C103.696 24.4107 103.696 24.4108 103.696 24.4108M103.774 24.402C103.773 24.4015 103.77 24.4004 103.767 24.3985C103.759 24.3943 103.748 24.3878 103.735 24.378C103.765 24.3487 103.803 24.3039 103.85 24.2405C103.957 24.0943 104.085 23.8813 104.225 23.6159C104.506 23.0872 104.823 22.3854 105.122 21.6796C105.42 20.9753 105.699 20.2732 105.902 19.7467C106.004 19.4836 106.087 19.2646 106.145 19.1115C106.161 19.0684 106.176 19.0305 106.188 18.9983L103.255 14.1147M103.774 24.402C103.77 24.4007 103.755 24.397 103.732 24.4003C103.712 24.4032 103.7 24.4088 103.697 24.4104M103.774 24.402C103.774 24.4022 103.775 24.4023 103.775 24.4023L103.774 24.402Z" fill="#475569"/>
<path d="M104.11 17.7451L104.776 22.8823L106.029 20.3553L104.11 17.7451Z" fill="#475569"/>
<path fill-rule="evenodd" clip-rule="evenodd" d="M104.005 17.4832C104.124 17.4353 104.261 17.4742 104.337 17.5779L106.257 20.1882C106.319 20.2732 106.329 20.3862 106.282 20.4808L105.028 23.0078C104.973 23.1191 104.852 23.1812 104.729 23.1607C104.606 23.1402 104.512 23.0419 104.496 22.9186L103.83 17.7814C103.813 17.6538 103.885 17.5311 104.005 17.4832ZM104.53 18.793L104.936 21.9242L105.7 20.384L104.53 18.793Z" fill="#475569"/>
<path d="M112.146 11.2317C112.456 11.4924 112.839 11.6508 113.242 11.685C113.646 11.7192 114.05 11.6276 114.399 11.4227C115.814 10.7616 116.47 9.35116 115.246 8.22478C114.022 7.09841 113.366 8.31783 112.988 6.81437C112.611 5.3109 111.108 4.27757 109.815 4.64977C108.522 5.02196 108.973 5.49699 108.032 5.77614C107.092 6.05529 105.868 5.21295 104.643 6.43728C103.419 7.6616 103.233 10.5755 102.954 11.8929C102.675 13.2102 103.894 13.5824 104.913 13.4894C105.931 13.3963 106.793 11.2317 107.641 10.551C108.488 9.87027 112.146 11.2317 112.146 11.2317Z" fill="#475569"/>
<path fill-rule="evenodd" clip-rule="evenodd" d="M111.904 4.79572C112.543 5.23262 113.056 5.92405 113.262 6.74568C113.352 7.10404 113.445 7.23953 113.512 7.29643C113.57 7.34659 113.643 7.36788 113.818 7.37936C113.844 7.38105 113.871 7.38249 113.901 7.38404C114.06 7.3923 114.274 7.40339 114.506 7.46901C114.792 7.54948 115.101 7.70775 115.437 8.01708C116.12 8.64568 116.307 9.39206 116.081 10.0857C115.863 10.7536 115.28 11.3195 114.53 11.6728C114.133 11.9024 113.675 12.0049 113.218 11.9661C112.774 11.9285 112.351 11.7591 112.004 11.4802C111.978 11.4707 111.941 11.4573 111.893 11.4406C111.793 11.4053 111.649 11.3555 111.473 11.2977C111.121 11.182 110.644 11.0353 110.143 10.9098C109.639 10.7838 109.121 10.6819 108.683 10.6517C108.463 10.6365 108.274 10.64 108.12 10.6637C107.964 10.6878 107.869 10.7293 107.817 10.7709C107.638 10.9154 107.443 11.1511 107.229 11.4489C107.109 11.6168 106.994 11.7852 106.877 11.9588C106.779 12.1024 106.68 12.2495 106.572 12.4029C106.345 12.7245 106.103 13.0441 105.844 13.2907C105.59 13.5342 105.287 13.7385 104.938 13.7703C104.397 13.8198 103.767 13.7506 103.298 13.4599C103.058 13.3113 102.856 13.1016 102.738 12.8195C102.621 12.5378 102.599 12.2077 102.678 11.8343C102.734 11.5672 102.787 11.2316 102.848 10.847C102.86 10.7707 102.872 10.6925 102.885 10.6125C102.961 10.1341 103.05 9.60072 103.169 9.06843C103.404 8.01915 103.77 6.91206 104.444 6.2377C105.128 5.55362 105.827 5.44556 106.455 5.47026C106.639 5.47748 106.836 5.4978 107.014 5.51633C107.117 5.52697 107.214 5.53703 107.3 5.54365C107.557 5.56353 107.768 5.56027 107.952 5.50558C108.159 5.44425 108.272 5.37757 108.348 5.31575C108.416 5.26023 108.462 5.20459 108.528 5.12339C108.543 5.10597 108.558 5.08738 108.574 5.06735C108.666 4.9569 108.781 4.83041 108.968 4.70757C109.153 4.58671 109.395 4.47707 109.737 4.37855C110.481 4.16432 111.266 4.35939 111.904 4.79572ZM112.146 11.2317L112.244 10.9672C112.275 10.9785 112.303 10.9949 112.328 11.0158C112.593 11.239 112.921 11.3745 113.266 11.4038C113.611 11.4331 113.957 11.3546 114.256 11.1793C114.264 11.1748 114.271 11.1707 114.279 11.167C114.939 10.8588 115.387 10.3914 115.544 9.91065C115.694 9.4522 115.596 8.93018 115.055 8.43242C114.779 8.17855 114.547 8.06686 114.353 8.0122C114.186 7.96512 114.043 7.95727 113.886 7.94864C113.852 7.94678 113.817 7.94487 113.781 7.94253C113.592 7.93014 113.353 7.90399 113.144 7.72474C112.943 7.55223 112.813 7.27635 112.715 6.88298C112.544 6.20114 112.116 5.62417 111.586 5.26159C111.055 4.89844 110.442 4.76294 109.893 4.9209C109.589 5.00848 109.402 5.09779 109.278 5.17941C109.157 5.25904 109.083 5.33854 109.008 5.42827C108.997 5.44149 108.986 5.45564 108.974 5.47052C108.906 5.55335 108.82 5.65886 108.704 5.75362C108.559 5.871 108.376 5.96838 108.113 6.04662C107.827 6.13151 107.532 6.12763 107.257 6.10635C107.138 6.09716 107.028 6.0856 106.921 6.07432C106.761 6.05734 106.606 6.04097 106.433 6.0342C105.909 6.0136 105.383 6.09653 104.843 6.63677C104.293 7.18674 103.953 8.14875 103.72 9.19184C103.604 9.70573 103.518 10.2243 103.442 10.701C103.43 10.7783 103.418 10.8548 103.406 10.93C103.346 11.3142 103.29 11.6682 103.23 11.9513C103.169 12.2366 103.195 12.447 103.259 12.6027C103.324 12.758 103.438 12.8826 103.595 12.9801C103.92 13.1815 104.41 13.2519 104.887 13.2083C105.048 13.1936 105.235 13.0925 105.455 12.8826C105.671 12.676 105.888 12.3944 106.11 12.0782C106.203 11.9467 106.301 11.8022 106.4 11.6565C106.526 11.4711 106.653 11.2839 106.771 11.1194C106.989 10.8171 107.22 10.5269 107.464 10.331C107.624 10.2024 107.829 10.1376 108.034 10.1059C108.243 10.0737 108.478 10.0718 108.721 10.0886C109.208 10.1222 109.763 10.233 110.279 10.3623C110.798 10.4921 111.289 10.6432 111.649 10.7615C111.83 10.8207 111.978 10.8719 112.081 10.9084C112.133 10.9267 112.173 10.9412 112.201 10.9513L112.233 10.963L112.241 10.966L112.244 10.9672C112.245 10.9672 112.244 10.9672 112.146 11.2317Z" fill="#475569"/>
<path d="M103.022 13.8665C103.022 13.8665 103.115 15.9331 103.512 16.5943C103.909 17.2554 105.471 20.3554 106.049 20.3554C106.651 20.3973 107.256 20.3326 107.836 20.1644C108.213 19.9783 109.717 18.0047 110.657 16.3102C111.598 14.6158 112.166 11.2317 112.166 11.2317C112.166 11.2317 107.65 8.41089 107.366 8.97408C107.082 9.53726 107.18 10.3845 106.71 10.4775C106.24 10.5706 105.207 10.6685 105.207 10.6685C105.207 10.6685 105.486 11.9859 105.109 12.2651C104.732 12.5442 103.791 11.9859 103.791 11.9859C103.791 11.9859 102.645 12.172 103.022 13.8665Z" fill="white"/>
<path fill-rule="evenodd" clip-rule="evenodd" d="M112.315 10.9923C112.315 10.9924 112.315 10.9924 112.166 11.2317C112.444 11.2784 112.444 11.2785 112.444 11.2785L112.444 11.2793L112.443 11.2813L112.442 11.289L112.437 11.3186C112.433 11.3444 112.426 11.3822 112.417 11.4308C112.399 11.5279 112.373 11.6682 112.339 11.8417C112.271 12.1885 112.169 12.6687 112.038 13.2028C111.778 14.2624 111.394 15.5642 110.904 16.4471C110.427 17.3074 109.809 18.235 109.262 18.9711C108.989 19.3392 108.732 19.6628 108.516 19.9081C108.409 20.0305 108.309 20.1364 108.222 20.2194C108.141 20.2965 108.05 20.3738 107.961 20.4174C107.946 20.4248 107.931 20.4308 107.915 20.4354C107.306 20.6121 106.67 20.6805 106.037 20.6374C105.859 20.6327 105.708 20.5231 105.605 20.4337C105.486 20.3303 105.364 20.1905 105.242 20.0338C104.997 19.719 104.728 19.2989 104.47 18.8675C104.212 18.4342 103.959 17.9811 103.747 17.597C103.699 17.5097 103.654 17.4263 103.611 17.3478C103.462 17.0768 103.344 16.863 103.27 16.7394C103.147 16.5335 103.059 16.2433 102.993 15.9511C102.926 15.6516 102.875 15.3211 102.838 15.0165C102.801 14.7111 102.777 14.4274 102.762 14.2203C102.754 14.1166 102.749 14.0318 102.746 13.9727C102.744 13.9432 102.743 13.92 102.742 13.9042C102.547 13.0041 102.744 12.4384 103.058 12.099C103.211 11.9347 103.378 11.8381 103.506 11.7825C103.571 11.7546 103.627 11.7365 103.668 11.7251C103.689 11.7194 103.706 11.7153 103.719 11.7125C103.726 11.7111 103.732 11.7099 103.736 11.7091L103.742 11.7081L103.744 11.7077L103.745 11.7075C103.745 11.7075 103.746 11.7074 103.791 11.9859L103.746 11.7074C103.811 11.6968 103.878 11.7094 103.935 11.7432L103.937 11.7439L103.943 11.7476C103.949 11.751 103.958 11.7561 103.97 11.7628C103.994 11.7761 104.029 11.7952 104.072 11.8174C104.16 11.8622 104.279 11.9182 104.407 11.9656C104.537 12.0137 104.663 12.0483 104.77 12.0582C104.881 12.0685 104.927 12.0482 104.941 12.0385C104.941 12.0378 104.951 12.0288 104.964 11.9997C104.979 11.9664 104.994 11.9177 105.005 11.8519C105.027 11.7193 105.028 11.5525 105.017 11.3796C105.007 11.2093 104.985 11.0453 104.966 10.9229C104.956 10.8621 104.947 10.8122 104.941 10.778C104.937 10.7609 104.935 10.7477 104.933 10.739L104.931 10.7294L104.931 10.7273C104.914 10.6486 104.932 10.5662 104.979 10.5014C105.027 10.4366 105.1 10.3952 105.18 10.3876L105.191 10.3865L105.224 10.3833C105.253 10.3805 105.295 10.3763 105.347 10.371C105.45 10.3605 105.593 10.3455 105.75 10.3276C106.068 10.2913 106.433 10.2447 106.655 10.2007C106.677 10.1965 106.699 10.1876 106.73 10.1364C106.767 10.075 106.8 9.97934 106.833 9.8369C106.85 9.76925 106.864 9.6976 106.881 9.61948L106.882 9.61524C106.898 9.5369 106.915 9.45267 106.936 9.36814C106.976 9.20029 107.029 9.01687 107.114 8.84699C107.183 8.71089 107.307 8.65194 107.409 8.63051C107.505 8.61012 107.607 8.61657 107.697 8.63049C107.88 8.65872 108.104 8.73243 108.341 8.82721C108.82 9.01892 109.423 9.32533 110.008 9.64394C110.594 9.96377 111.171 10.3008 111.601 10.5575C111.815 10.686 111.994 10.7945 112.119 10.871C112.181 10.9093 112.23 10.9395 112.263 10.9603L112.302 10.984L112.315 10.9923ZM105.536 10.9188C105.553 11.0404 105.571 11.1889 105.581 11.3446C105.593 11.536 105.593 11.7509 105.562 11.9438C105.532 12.1224 105.464 12.3533 105.277 12.4918C105.101 12.6218 104.888 12.636 104.718 12.6202C104.542 12.6039 104.363 12.5512 104.21 12.4947C104.056 12.4374 103.916 12.3713 103.816 12.3201C103.795 12.3092 103.775 12.2989 103.757 12.2895C103.749 12.2927 103.74 12.2964 103.73 12.3004C103.656 12.3327 103.56 12.3885 103.472 12.4825C103.311 12.6568 103.124 13.0246 103.298 13.8052C103.301 13.8211 103.304 13.8374 103.304 13.8537C103.304 13.8537 103.304 13.8537 103.304 13.8537L103.304 13.8549L103.305 13.8589L103.305 13.8755C103.306 13.8902 103.307 13.9121 103.309 13.9404C103.312 13.9969 103.317 14.0787 103.325 14.1791C103.339 14.3802 103.363 14.6545 103.399 14.9484C103.435 15.2431 103.482 15.5532 103.544 15.8272C103.607 16.1084 103.679 16.3244 103.754 16.4491C103.834 16.5828 103.96 16.811 104.11 17.0848C104.152 17.1615 104.196 17.2419 104.242 17.3247C104.453 17.7077 104.701 18.1536 104.955 18.578C105.209 19.0042 105.464 19.4004 105.687 19.6875C105.8 19.8318 105.897 19.9393 105.976 20.0081C106.033 20.0578 106.062 20.071 106.067 20.0737C106.067 20.0738 106.068 20.0738 106.069 20.0739C106.626 20.1126 107.187 20.0548 107.725 19.9029C107.73 19.8992 107.737 19.894 107.746 19.8871C107.769 19.8691 107.798 19.8438 107.833 19.8102C107.904 19.7431 107.991 19.651 108.092 19.5358C108.294 19.3057 108.542 18.9951 108.809 18.6348C109.344 17.9139 109.948 17.0074 110.411 16.1733C110.861 15.3617 111.231 14.1243 111.49 13.0683C111.619 12.5445 111.718 12.0729 111.785 11.7322C111.814 11.5851 111.838 11.4626 111.854 11.371C111.844 11.365 111.834 11.3587 111.824 11.3522C111.7 11.2766 111.524 11.1692 111.311 11.042C110.885 10.7874 110.315 10.4544 109.737 10.1394C109.157 9.82324 108.578 9.53004 108.131 9.35124C107.905 9.26076 107.729 9.2065 107.611 9.18826C107.6 9.18654 107.59 9.18523 107.581 9.18425C107.543 9.27728 107.512 9.38264 107.485 9.49884C107.467 9.57439 107.451 9.65101 107.434 9.73023L107.433 9.73793C107.417 9.81336 107.4 9.89183 107.383 9.96731C107.347 10.1187 107.298 10.2875 107.212 10.4288C107.121 10.5802 106.978 10.7121 106.765 10.7544C106.517 10.8034 106.13 10.8523 105.814 10.8883C105.713 10.8998 105.618 10.9101 105.536 10.9188ZM112.166 11.2317L112.444 11.2785C112.463 11.1659 112.412 11.0528 112.315 10.9923L112.166 11.2317Z" fill="#475569"/>
<path d="M108.253 14.1995C108.169 14.557 107.939 14.8116 107.763 14.7676C107.587 14.7235 107.469 14.3905 107.552 14.033C107.636 13.6755 107.866 13.4159 108.067 13.4649C108.267 13.5139 108.346 13.842 108.253 14.1995Z" fill="#475569"/>
<path d="M110.711 14.8851C110.623 15.2475 110.398 15.4973 110.197 15.4532C109.996 15.4091 109.903 15.0761 109.986 14.7186C110.07 14.3611 110.3 14.1016 110.476 14.1505C110.652 14.1995 110.794 14.5276 110.711 14.8851Z" fill="#475569"/>
<path fill-rule="evenodd" clip-rule="evenodd" d="M107.4 13.0731C107.397 13.0756 107.394 13.0779 107.391 13.0803C107.391 13.0805 107.391 13.0806 107.39 13.0807C107.39 13.081 107.39 13.0811 107.39 13.0811C107.39 13.0811 107.39 13.0807 107.392 13.0799L107.395 13.0772L107.398 13.0752L107.399 13.074L107.4 13.0734L107.4 13.0731ZM107.415 13.0682C107.402 13.0741 107.394 13.0785 107.391 13.0803C107.27 13.1692 107.099 13.1477 107.004 13.0293C106.907 12.9078 106.926 12.7302 107.048 12.6326L107.224 12.8527C107.048 12.6326 107.048 12.6325 107.048 12.6323L107.048 12.632L107.049 12.6313L107.051 12.6298L107.056 12.6265C107.059 12.6242 107.062 12.6217 107.066 12.619C107.074 12.6135 107.083 12.6071 107.094 12.6002C107.117 12.5862 107.147 12.57 107.184 12.5532C107.259 12.5196 107.364 12.4847 107.502 12.4621C107.78 12.4171 108.189 12.4227 108.768 12.5804C108.918 12.6214 109.007 12.7765 108.966 12.9269C108.925 13.0772 108.77 13.1659 108.619 13.125C108.101 12.9839 107.775 12.9896 107.593 13.0192C107.501 13.0341 107.444 13.0551 107.415 13.0682Z" fill="#475569"/>
<path fill-rule="evenodd" clip-rule="evenodd" d="M110.063 13.4917C110.081 13.3368 110.221 13.2256 110.376 13.2433C110.613 13.2702 110.841 13.3481 111.044 13.4714C111.248 13.5947 111.423 13.7606 111.557 13.9578C111.644 14.0867 111.611 14.2622 111.482 14.3497C111.353 14.4372 111.177 14.4036 111.09 14.2746C111.002 14.1448 110.887 14.0355 110.752 13.9543C110.618 13.873 110.468 13.8218 110.312 13.804C110.157 13.7864 110.046 13.6465 110.063 13.4917Z" fill="#475569"/>
<path fill-rule="evenodd" clip-rule="evenodd" d="M109.578 14.5832C109.731 14.6116 109.832 14.7589 109.803 14.9122L109.431 16.9151C109.404 17.0619 109.267 17.162 109.119 17.1436L107.934 16.9967C107.779 16.9775 107.669 16.8366 107.689 16.682C107.708 16.5273 107.849 16.4175 108.003 16.4366L108.925 16.5509L109.249 14.8091C109.277 14.6558 109.424 14.5547 109.578 14.5832Z" fill="#475569"/>
<path fill-rule="evenodd" clip-rule="evenodd" d="M106.065 16.0693C106.217 16.0348 106.368 16.1302 106.403 16.2822C106.563 16.9907 106.886 17.3129 107.14 17.4654C107.271 17.5442 107.391 17.5829 107.477 17.6019C107.52 17.6114 107.554 17.6158 107.575 17.6179C107.586 17.6189 107.593 17.6194 107.597 17.6195C107.598 17.6196 107.599 17.6196 107.599 17.6196C107.599 17.6196 107.599 17.6196 107.599 17.6196C107.599 17.6196 107.6 17.6196 107.6 17.6196L107.599 17.6196L107.598 17.6196L107.597 17.6196L107.597 17.6196M107.596 17.9018C107.596 18.184 107.596 18.184 107.596 18.184L107.596 18.184L107.595 18.184L107.593 18.184L107.587 18.1839C107.583 18.1838 107.577 18.1836 107.571 18.1833C107.558 18.1827 107.541 18.1816 107.52 18.1796C107.479 18.1756 107.423 18.1679 107.356 18.153C107.221 18.1233 107.041 18.0648 106.849 17.9489C106.455 17.7121 106.044 17.2556 105.852 16.4068C105.818 16.2548 105.913 16.1037 106.065 16.0693" fill="#475569"/>
<path d="M104.242 12.8331C104.242 12.8331 104.056 10.6685 103.208 10.6685C102.361 10.6685 101.612 12.6274 102.082 13.4893C102.552 14.3512 103.772 14.6157 103.772 14.6157" fill="white"/>
<path fill-rule="evenodd" clip-rule="evenodd" d="M102.402 10.7966C102.61 10.5713 102.885 10.3863 103.209 10.3863C103.557 10.3863 103.802 10.6123 103.961 10.8491C104.123 11.0886 104.235 11.3925 104.315 11.6743C104.395 11.96 104.447 12.2429 104.479 12.4527C104.494 12.558 104.505 12.646 104.513 12.7081C104.516 12.7392 104.519 12.7638 104.52 12.781L104.522 12.8009L104.523 12.8065L104.523 12.8081L104.523 12.8088C104.523 12.8088 104.523 12.8089 104.242 12.8331L104.523 12.8088C104.536 12.9641 104.421 13.1009 104.266 13.1142C104.111 13.1276 103.974 13.0125 103.961 12.8573C103.961 12.8572 103.961 12.8573 104.223 12.8347L103.961 12.8573M103.832 14.3399L103.772 14.6157C103.832 14.3399 103.831 14.3399 103.832 14.3399Z" fill="#475569"/>
<path d="M96.7392 24.2046L98.37 37.7211L112.082 42.4079L112.298 43.9946L93.9625 41.497L91.0241 26.286C90.6666 24.4397 91.6167 22.4367 92.934 21.3152C94.2514 20.1937 96.3181 20.135 96.3181 20.135" fill="#14B8A6"/>
<path fill-rule="evenodd" clip-rule="evenodd" d="M96.3261 20.417C96.326 20.417 96.3261 20.417 96.3261 20.417L96.3224 20.4172L96.3073 20.4178C96.2936 20.4184 96.2725 20.4195 96.2448 20.4213C96.1893 20.4248 96.1075 20.4312 96.0047 20.4422C95.7988 20.4644 95.5104 20.5052 95.1826 20.5797C94.5213 20.73 93.7259 21.0116 93.1169 21.5301C91.859 22.6009 90.9671 24.5072 91.3011 26.2323L94.2011 41.2447L111.968 43.6649L111.826 42.6185L98.2787 37.9881C98.1762 37.9531 98.1028 37.8625 98.0898 37.7549L96.459 24.2384C96.4404 24.0837 96.5507 23.9431 96.7054 23.9245C96.8601 23.9058 97.0007 24.0161 97.0194 24.1708L98.6289 37.5114L112.174 42.1408C112.275 42.1754 112.348 42.264 112.362 42.3699L112.578 43.9566C112.589 44.0439 112.56 44.1318 112.497 44.1941C112.435 44.2565 112.347 44.2861 112.26 44.2742L93.9243 41.7765C93.8045 41.7602 93.7083 41.6693 93.6854 41.5505L90.747 26.3396C90.747 26.3396 90.747 26.3396 90.747 26.3396C90.3661 24.3722 91.3743 22.2724 92.7511 21.1003C93.4595 20.4973 94.3561 20.1888 95.0575 20.0294C95.411 19.949 95.7216 19.905 95.9444 19.8811C96.0559 19.8691 96.1458 19.8621 96.2086 19.8581C96.2399 19.8561 96.2645 19.8548 96.2817 19.854L96.3017 19.8532L96.3073 19.853L96.3091 19.8529L96.3096 19.8529C96.3097 19.8529 96.31 19.8529 96.318 20.135L96.3096 19.8529C96.4654 19.8485 96.5957 19.9712 96.6001 20.1269C96.6045 20.2827 96.4817 20.4125 96.3261 20.417Z" fill="#475569"/>
<path d="M112.063 42.4079C112.063 42.4079 114.247 41.7957 114.511 41.7418C114.776 41.688 116.26 42.8388 116.554 42.878C116.847 42.9172 117.347 43.0102 117.322 43.3971C117.298 43.784 117.171 44.0974 116.456 43.8526C116.049 43.72 115.652 43.5563 115.271 43.3628C115.942 44.0503 116.655 44.6963 117.406 45.2973C117.676 45.4668 117.923 45.671 118.14 45.9045C118.174 45.94 118.198 45.9828 118.211 46.0294C118.225 46.0761 118.227 46.1253 118.218 46.173C118.209 46.2208 118.189 46.2657 118.159 46.3041C118.13 46.3426 118.091 46.3734 118.047 46.3942C117.462 46.6731 116.829 46.8392 116.181 46.884C115.133 46.884 112.264 43.9995 112.264 43.9995L112.063 42.4079Z" fill="white"/>
<path fill-rule="evenodd" clip-rule="evenodd" d="M114.533 42.0262C114.358 42.0673 113.805 42.2174 113.263 42.3671C112.974 42.4469 112.693 42.525 112.484 42.5832L112.373 42.6141L112.531 43.8678C112.547 43.8833 112.566 43.9014 112.586 43.9218C112.666 43.9998 112.781 44.1114 112.922 44.2453C113.205 44.5136 113.593 44.8705 114.012 45.2267C114.432 45.584 114.879 45.9357 115.281 46.1966C115.482 46.3271 115.666 46.4312 115.826 46.5019C115.985 46.5718 116.099 46.5997 116.173 46.6017C116.781 46.5582 117.376 46.4015 117.926 46.1395C117.93 46.1377 117.933 46.1348 117.936 46.1316C117.938 46.1283 117.94 46.1244 117.941 46.1204C117.942 46.1163 117.942 46.1121 117.94 46.1081C117.939 46.1041 117.937 46.1005 117.934 46.0974L117.934 46.0968C117.733 45.8812 117.505 45.6928 117.256 45.5363C117.247 45.5306 117.238 45.5243 117.229 45.5175C116.47 44.9095 115.748 44.2558 115.069 43.5601C114.972 43.4613 114.961 43.3072 115.043 43.1959C115.125 43.0846 115.275 43.0487 115.398 43.1111C115.767 43.298 116.15 43.4562 116.543 43.5842L116.547 43.5856C116.886 43.7018 116.971 43.642 116.975 43.6385C116.991 43.6263 117.029 43.5731 117.041 43.3793C117.043 43.3499 117.036 43.338 117.028 43.328C117.016 43.3121 116.989 43.2877 116.935 43.2613C116.821 43.2063 116.663 43.1772 116.516 43.1577C116.427 43.1458 116.333 43.102 116.265 43.0674C116.186 43.0274 116.095 42.975 116.001 42.9173C115.849 42.8246 115.672 42.7098 115.496 42.5951C115.453 42.5672 115.41 42.5393 115.368 42.5118C115.147 42.3683 114.935 42.2333 114.763 42.1376C114.677 42.0894 114.609 42.0556 114.559 42.0358C114.548 42.0316 114.539 42.0284 114.533 42.0262ZM112.264 43.9995L112.063 44.1985C112.019 44.1543 111.991 44.0967 111.984 44.0348L111.783 42.4432C111.765 42.3045 111.852 42.1739 111.987 42.1362L112.332 42.0396C112.541 41.9813 112.823 41.903 113.113 41.823C113.684 41.6654 114.31 41.4948 114.455 41.4653C114.527 41.4507 114.592 41.4604 114.634 41.4694C114.68 41.4793 114.726 41.4948 114.767 41.5113C114.85 41.5444 114.944 41.5919 115.038 41.6447C115.228 41.7509 115.455 41.8958 115.675 42.0383C115.72 42.0672 115.764 42.096 115.808 42.1245C115.983 42.2387 116.15 42.3475 116.295 42.4355C116.385 42.4903 116.46 42.5339 116.52 42.5641C116.574 42.5916 116.597 42.5983 116.596 42.5989C116.596 42.5991 116.594 42.5988 116.591 42.5983C116.738 42.618 116.977 42.6551 117.18 42.753C117.284 42.8031 117.395 42.877 117.479 42.9886C117.568 43.106 117.614 43.2509 117.604 43.4149C117.592 43.608 117.553 43.905 117.321 44.085C117.109 44.2488 116.827 44.2512 116.511 44.1648C116.855 44.4759 117.208 44.7768 117.57 45.0671C117.855 45.2479 118.116 45.4648 118.347 45.7123C118.41 45.78 118.457 45.8618 118.482 45.9508C118.508 46.0401 118.513 46.1343 118.495 46.2257C118.478 46.3171 118.439 46.4031 118.382 46.4767C118.326 46.5502 118.252 46.6093 118.168 46.6492C117.551 46.9431 116.883 47.1183 116.201 47.1655C116.194 47.1659 116.188 47.1662 116.181 47.1662C115.993 47.1662 115.791 47.1033 115.598 47.0182C115.401 46.9311 115.189 46.8099 114.973 46.6699C114.542 46.39 114.075 46.0206 113.647 45.6568C113.217 45.2919 112.822 44.9277 112.534 44.655C112.39 44.5186 112.273 44.4048 112.191 44.325C112.151 44.2851 112.119 44.2537 112.097 44.2321L112.072 44.2074L112.066 44.2009L112.063 44.1985C112.063 44.1985 112.063 44.1985 112.264 43.9995Z" fill="#475569"/>
<path d="M197.574 82.5166C197.574 82.5166 211.59 74.6123 213.633 75.3763C215.675 76.1403 211.845 91.6892 211.336 92.7078C210.826 93.7265 197.574 82.5166 197.574 82.5166Z" fill="#14B8A6"/>
<path fill-rule="evenodd" clip-rule="evenodd" d="M197.574 82.5166C197.392 82.7321 197.392 82.7321 197.392 82.7322L197.541 82.8581C197.639 82.9401 197.782 83.0601 197.963 83.2126C198.327 83.5174 198.847 83.9517 199.473 84.4696C200.724 85.5053 202.398 86.8761 204.089 88.2154C205.778 89.5538 207.488 90.8642 208.81 91.7774C209.469 92.2327 210.042 92.596 210.47 92.814C210.681 92.9213 210.877 93.0035 211.039 93.0375C211.12 93.0543 211.216 93.0647 211.311 93.0441C211.417 93.0211 211.527 92.957 211.588 92.8341C211.666 92.678 211.789 92.2945 211.936 91.7794C212.086 91.2512 212.271 90.5539 212.471 89.7452C212.87 88.1279 213.334 86.0595 213.718 83.9983C214.102 81.9395 214.408 79.8778 214.489 78.2777C214.529 77.4798 214.514 76.7806 214.419 76.2488C214.371 75.9832 214.301 75.7444 214.197 75.552C214.093 75.3588 213.944 75.1916 213.731 75.1121C213.548 75.0434 213.326 75.0321 213.095 75.0492C212.859 75.0667 212.587 75.1162 212.288 75.1899C211.692 75.3373 210.964 75.5886 210.158 75.9073C208.545 76.5454 206.593 77.4662 204.711 78.4076C202.828 79.3497 201.009 80.3154 199.662 81.0454C198.988 81.4104 198.432 81.7166 198.044 81.9317C197.85 82.0392 197.698 82.1239 197.594 82.1818L197.476 82.2479L197.436 82.2707C197.436 82.2708 197.436 82.2708 197.574 82.5166ZM198.068 82.5637C198.142 82.6259 198.228 82.6983 198.326 82.78C198.689 83.0842 199.208 83.5178 199.833 84.0349C201.082 85.0692 202.753 86.4372 204.439 87.773C206.127 89.1098 207.825 90.4108 209.131 91.313C209.786 91.7654 210.333 92.1108 210.726 92.3109C210.905 92.4021 211.038 92.4552 211.126 92.4783C211.185 92.323 211.276 92.0356 211.393 91.6246C211.541 91.1046 211.724 90.4141 211.923 89.6098C212.32 88.0013 212.782 85.9438 213.163 83.8949C213.546 81.8437 213.846 79.8113 213.925 78.2492C213.964 77.4661 213.947 76.8172 213.863 76.3485C213.821 76.1138 213.765 75.9393 213.7 75.8194C213.636 75.7004 213.576 75.6566 213.534 75.6407C213.462 75.6138 213.335 75.5974 213.136 75.6121C212.943 75.6264 212.704 75.6684 212.424 75.7378C211.863 75.8764 211.161 76.1173 210.366 76.4321C208.776 77.0612 206.841 77.9733 204.964 78.9124C203.088 79.8508 201.275 80.8134 199.931 81.5416C199.259 81.9057 198.704 82.211 198.317 82.4253C198.224 82.4768 198.141 82.5231 198.068 82.5637ZM197.436 82.2707L197.574 82.5166L197.392 82.7322C197.322 82.6725 197.285 82.582 197.293 82.49C197.302 82.3981 197.355 82.3161 197.436 82.2707Z" fill="#475569"/>
<path fill-rule="evenodd" clip-rule="evenodd" d="M213.101 77.5711C213.101 77.5711 213.101 77.5711 213.101 77.5711L213.094 77.5814L213.074 77.6132C213.056 77.6413 213.03 77.6831 212.996 77.7376C212.927 77.8466 212.828 78.0063 212.704 78.2085C212.457 78.6129 212.113 79.1869 211.728 79.8645M213.101 77.5711C213.185 77.44 213.147 77.2654 213.016 77.1811L213.101 77.5711ZM212.864 77.4185L212.626 77.266L212.619 77.2775L212.598 77.3104C212.579 77.3393 212.552 77.382 212.518 77.4374C212.448 77.5482 212.347 77.7098 212.223 77.9141C211.973 78.3226 211.626 78.9019 211.237 79.5857C210.559 80.7803 209.752 82.2989 209.115 83.7871C208.482 85.2643 207.998 86.7516 207.998 87.8693C207.998 88.7209 208.128 89.3737 208.353 89.8287C208.579 90.2844 208.924 90.5781 209.348 90.5998C209.761 90.621 210.142 90.3774 210.435 90.0054C210.731 89.6298 210.968 89.0901 211.102 88.4197L212.883 81.0303C212.92 80.8788 212.827 80.7264 212.675 80.6898C212.524 80.6533 212.371 80.7465 212.335 80.898L210.552 88.2929C210.551 88.2967 210.55 88.3004 210.55 88.3041C210.428 88.9142 210.22 89.3666 209.992 89.656C209.76 89.9501 209.536 90.0444 209.377 90.0362C209.228 90.0285 209.031 89.9255 208.859 89.5781C208.686 89.2299 208.562 88.6731 208.562 87.8693C208.562 86.8764 209.003 85.4816 209.634 84.0094C210.26 82.5482 211.055 81.05 211.728 79.8645M212.864 77.4185L212.626 77.266C212.71 77.1349 212.885 77.0969 213.016 77.1811" fill="#475569"/>
<path d="M95.0544 123.987C98.8978 123.987 102.013 119.931 102.013 114.927C102.013 109.923 98.8978 105.867 95.0544 105.867C91.2111 105.867 88.0954 109.923 88.0954 114.927C88.0954 119.931 91.2111 123.987 95.0544 123.987Z" fill="#14B8A6"/>
<path fill-rule="evenodd" clip-rule="evenodd" d="M90.3575 108.692C89.1392 110.279 88.3776 112.482 88.3776 114.927C88.3776 117.372 89.1392 119.575 90.3575 121.161C91.5755 122.747 93.2386 123.705 95.0545 123.705C96.8703 123.705 98.5334 122.747 99.7515 121.161C100.97 119.575 101.731 117.372 101.731 114.927C101.731 112.482 100.97 110.279 99.7515 108.692C98.5334 107.107 96.8703 106.149 95.0545 106.149C93.2386 106.149 91.5755 107.107 90.3575 108.692ZM89.9099 108.349C91.2105 106.655 93.0269 105.585 95.0545 105.585C97.082 105.585 98.8984 106.655 100.199 108.349C101.499 110.042 102.296 112.368 102.296 114.927C102.296 117.485 101.499 119.812 100.199 121.505C98.8984 123.198 97.082 124.269 95.0545 124.269C93.0269 124.269 91.2105 123.198 89.9099 121.505C88.6095 119.812 87.8132 117.485 87.8132 114.927C87.8132 112.368 88.6095 110.042 89.9099 108.349Z" fill="#475569"/>
<path d="M158.132 179.938C194.753 179.938 224.441 154.805 224.441 123.801C224.441 92.7968 194.753 67.6631 158.132 67.6631C121.51 67.6631 91.8223 92.7968 91.8223 123.801C91.8223 154.805 121.51 179.938 158.132 179.938Z" fill="#14B8A6"/>
<path fill-rule="evenodd" clip-rule="evenodd" d="M158.132 67.9453C121.62 67.9453 92.1045 92.9949 92.1045 123.801C92.1045 154.607 121.62 179.656 158.132 179.656C194.643 179.656 224.159 154.607 224.159 123.801C224.159 92.9949 194.643 67.9453 158.132 67.9453ZM91.5401 123.801C91.5401 92.5987 121.4 67.381 158.132 67.381C194.863 67.381 224.723 92.5987 224.723 123.801C224.723 155.003 194.863 180.221 158.132 180.221C121.4 180.221 91.5401 155.003 91.5401 123.801Z" fill="#475569"/>
<path d="M201.198 162.499C189.935 171.471 174.802 176.971 158.132 176.971C128.381 176.971 103.458 159.453 96.9742 135.936" fill="#14B8A6"/>
<path fill-rule="evenodd" clip-rule="evenodd" d="M96.8242 135.392C97.1247 135.309 97.4354 135.486 97.5183 135.786C103.922 159.011 128.582 176.406 158.132 176.406C174.679 176.406 189.686 170.947 200.847 162.058C201.09 161.864 201.446 161.904 201.64 162.148C201.834 162.391 201.794 162.746 201.55 162.941C190.183 171.995 174.925 177.535 158.132 177.535C128.179 177.535 102.995 159.895 96.4301 136.086C96.3473 135.786 96.5237 135.475 96.8242 135.392Z" fill="#475569"/>
<path d="M95.3679 125.564C95.3434 124.981 95.3336 124.393 95.3336 123.801C95.3352 117.39 96.6799 111.051 99.2808 105.191" fill="#14B8A6"/>
<path fill-rule="evenodd" clip-rule="evenodd" d="M99.5098 104.675C99.7947 104.802 99.9232 105.135 99.7967 105.42C97.2277 111.207 95.8997 117.469 95.898 123.801M99.5098 104.675C99.225 104.549 98.8915 104.677 98.765 104.962L99.5098 104.675ZM98.765 104.962C96.1321 110.894 94.7709 117.311 94.7693 123.801L98.765 104.962ZM94.7693 123.801L94.7693 123.801L94.7693 123.801ZM95.898 123.801C95.898 124.387 95.9077 124.967 95.9318 125.54C95.9449 125.852 95.7031 126.115 95.3916 126.128C95.0802 126.141 94.8172 125.899 94.8041 125.587C94.7792 124.995 94.7693 124.399 94.7693 123.801" fill="#475569"/>
<path fill-rule="evenodd" clip-rule="evenodd" d="M177.748 75.2012C164.951 71.583 151.401 71.583 138.603 75.2012C137.853 75.4132 137.073 74.9772 136.861 74.2274C136.649 73.4776 137.085 72.6978 137.835 72.4858C151.135 68.7256 165.216 68.7256 178.516 72.4858C179.266 72.6978 179.702 73.4776 179.49 74.2274C179.278 74.9772 178.498 75.4132 177.748 75.2012Z" fill="#475569"/>
<path d="M220.768 106.474C220.768 106.474 229.181 103.668 230.455 105.201C231.728 106.734 231.728 124.57 230.709 127.885C229.691 131.201 222.805 130.432 217.976 126.866C216.592 125.894 215.472 124.593 214.716 123.08C213.96 121.567 213.593 119.889 213.647 118.198" fill="#14B8A6"/>
<path fill-rule="evenodd" clip-rule="evenodd" d="M220.857 106.742C220.709 106.791 220.549 106.711 220.5 106.563C220.451 106.416 220.531 106.256 220.679 106.206L220.768 106.474C220.679 106.207 220.678 106.207 220.679 106.206L220.685 106.204L220.704 106.198L220.775 106.175C220.838 106.154 220.93 106.125 221.047 106.088C221.281 106.013 221.616 105.909 222.022 105.789C222.835 105.549 223.932 105.244 225.072 104.987C226.209 104.731 227.398 104.52 228.39 104.471C228.886 104.447 229.344 104.462 229.728 104.539C230.105 104.614 230.452 104.756 230.672 105.021C230.787 105.159 230.875 105.361 230.947 105.585C231.022 105.816 231.089 106.101 231.15 106.428C231.273 107.082 231.374 107.928 231.456 108.902C231.62 110.851 231.708 113.336 231.724 115.873C231.74 118.41 231.684 121.004 231.56 123.174C231.437 125.33 231.245 127.101 230.979 127.968C230.694 128.897 229.997 129.527 229.072 129.889C228.154 130.248 226.999 130.351 225.746 130.237C223.24 130.009 220.264 128.906 217.811 127.095C216.39 126.097 215.24 124.76 214.463 123.206C213.687 121.651 213.309 119.927 213.365 118.189C213.37 118.033 213.501 117.911 213.656 117.916C213.812 117.921 213.934 118.052 213.929 118.207C213.876 119.851 214.233 121.482 214.968 122.954C215.703 124.425 216.793 125.69 218.139 126.636L218.144 126.639C220.519 128.393 223.399 129.457 225.797 129.675C226.997 129.784 228.056 129.68 228.866 129.363C229.67 129.049 230.216 128.531 230.44 127.802C230.683 127.012 230.873 125.31 230.997 123.141C231.12 120.986 231.175 118.404 231.159 115.876C231.143 113.348 231.056 110.879 230.894 108.949C230.813 107.984 230.713 107.159 230.596 106.532C230.537 106.218 230.475 105.959 230.41 105.759C230.343 105.552 230.282 105.434 230.238 105.381C230.139 105.263 229.944 105.157 229.618 105.092C229.298 105.029 228.89 105.012 228.418 105.035C227.474 105.081 226.322 105.284 225.196 105.538C224.073 105.791 222.988 106.092 222.182 106.33C221.78 106.449 221.448 106.552 221.217 106.626C221.102 106.662 221.011 106.691 220.95 106.711L220.88 106.734L220.863 106.74L220.857 106.742Z" fill="#475569"/>
<path fill-rule="evenodd" clip-rule="evenodd" d="M215.949 117.392C215.972 117.547 215.866 117.69 215.712 117.713L210.613 118.477C210.459 118.5 210.316 118.394 210.293 118.24C210.269 118.086 210.376 117.942 210.53 117.919L215.628 117.155C215.782 117.132 215.926 117.238 215.949 117.392Z" fill="#475569"/>
<path d="M214.397 123.042C214.397 123.042 213.123 131.965 214.651 132.219C216.179 132.474 218.731 127.885 218.731 127.885C218.731 127.885 215.161 123.806 214.397 123.042Z" fill="#475569"/>
<path fill-rule="evenodd" clip-rule="evenodd" d="M214.307 122.774C214.409 122.74 214.52 122.767 214.596 122.842C214.986 123.232 216.077 124.451 217.061 125.563C217.556 126.121 218.026 126.655 218.373 127.049C218.546 127.247 218.689 127.409 218.788 127.522L218.943 127.699C218.943 127.699 218.943 127.699 218.731 127.885C218.977 128.022 218.977 128.022 218.977 128.022L218.977 128.023L218.975 128.026L218.969 128.037L218.947 128.076C218.927 128.11 218.899 128.16 218.862 128.224C218.788 128.351 218.681 128.531 218.548 128.746C218.283 129.177 217.911 129.75 217.49 130.316C217.071 130.88 216.595 131.448 216.118 131.863C215.88 132.07 215.633 132.246 215.385 132.362C215.137 132.477 214.871 132.542 214.605 132.498C214.265 132.441 214.063 132.153 213.941 131.86C213.814 131.555 213.735 131.154 213.686 130.709C213.588 129.812 213.605 128.654 213.669 127.519C213.733 126.381 213.845 125.252 213.941 124.408C213.989 123.986 214.033 123.635 214.065 123.389C214.081 123.266 214.094 123.17 214.103 123.104L214.113 123.028L214.116 123.009L214.117 123.002C214.117 123.002 214.117 123.002 214.397 123.042L214.117 123.002C214.132 122.897 214.206 122.808 214.307 122.774ZM214.599 123.665C214.571 123.885 214.537 124.158 214.502 124.472C214.407 125.309 214.296 126.427 214.233 127.551C214.169 128.678 214.154 129.799 214.247 130.647C214.294 131.074 214.366 131.412 214.462 131.644C214.563 131.887 214.656 131.934 214.698 131.941C214.813 131.96 214.961 131.937 215.146 131.851C215.33 131.764 215.532 131.624 215.748 131.436C216.18 131.062 216.628 130.531 217.037 129.979C217.445 129.43 217.807 128.872 218.068 128.45C218.198 128.239 218.302 128.063 218.374 127.94C218.378 127.933 218.382 127.926 218.386 127.92L218.364 127.894C218.264 127.781 218.122 127.619 217.949 127.422C217.602 127.028 217.133 126.494 216.639 125.937C215.896 125.099 215.106 124.213 214.599 123.665ZM218.731 127.885L218.977 128.022C219.035 127.918 219.021 127.789 218.943 127.699L218.731 127.885Z" fill="#475569"/>
<path d="M209.759 102.145C210.248 103.981 209.95 105.647 209.132 105.857C208.314 106.068 207.271 104.745 206.796 102.919C206.321 101.092 206.605 99.4172 207.423 99.2066C208.241 98.996 209.289 100.304 209.759 102.145Z" fill="#475569"/>
<path d="M182.976 77.4431C182.976 77.4431 199.014 61.4044 202.144 64.5338C205.273 67.6632 204.102 81.356 204.102 83.3149V88.7901" fill="#14B8A6"/>
<path fill-rule="evenodd" clip-rule="evenodd" d="M183.175 77.6424C183.175 77.6425 183.175 77.6426 183 77.4677L183.175 77.6424C183.065 77.7526 182.886 77.7528 182.776 77.6426C182.666 77.5324 182.666 77.3537 182.776 77.2435L182.957 77.4246C182.776 77.2435 182.776 77.2436 182.776 77.2435L182.788 77.2316L182.823 77.1969C182.853 77.1665 182.899 77.1214 182.958 77.0628C183.077 76.9457 183.251 76.7744 183.474 76.5577C183.92 76.1242 184.56 75.5087 185.338 74.78C186.893 73.3229 189 71.4114 191.207 69.5969C193.411 67.7847 195.725 66.0597 197.693 64.9831C198.675 64.4458 199.588 64.0598 200.369 63.9127C201.146 63.7663 201.856 63.8467 202.343 64.3342C203.191 65.1818 203.716 66.7006 204.047 68.4608C204.382 70.2368 204.529 72.3202 204.579 74.3564C204.628 76.3943 204.579 78.3939 204.518 80.0046C204.492 80.7097 204.463 81.3361 204.439 81.8587C204.408 82.538 204.385 83.0418 204.385 83.3149V88.79C204.385 88.9459 204.258 89.0722 204.102 89.0722C203.947 89.0722 203.82 88.9459 203.82 88.79V83.3149C203.82 83.031 203.844 82.5037 203.876 81.8059C203.9 81.2836 203.929 80.6659 203.954 79.9833C204.015 78.3779 204.063 76.3914 204.014 74.3701C203.965 72.3471 203.819 70.2981 203.492 68.5653C203.163 66.8167 202.661 65.4504 201.944 64.7333C201.649 64.4385 201.173 64.3356 200.474 64.4673C199.778 64.5983 198.926 64.9519 197.964 65.4782C196.044 66.5287 193.762 68.2265 191.565 70.0328C189.371 71.8368 187.273 73.7394 185.723 75.1918C184.949 75.9178 184.311 76.5309 183.868 76.9623C183.646 77.178 183.472 77.3482 183.355 77.4645C183.296 77.5226 183.251 77.5672 183.221 77.5973L183.186 77.6313L183.176 77.6419L183.175 77.6424Z" fill="#475569"/>
<path fill-rule="evenodd" clip-rule="evenodd" d="M202.954 68.0038C202.954 68.0039 202.954 68.004 202.694 67.9877L202.954 68.0038C202.944 68.1594 202.81 68.2777 202.655 68.268C202.499 68.2583 202.381 68.1244 202.391 67.9689L202.391 67.9667L202.391 67.959L202.393 67.9274C202.394 67.8995 202.396 67.8585 202.398 67.8069C202.401 67.7035 202.404 67.5584 202.402 67.3922C202.398 67.0551 202.374 66.6489 202.301 66.3283C202.264 66.1665 202.219 66.0468 202.172 65.9714C202.149 65.9352 202.13 65.917 202.119 65.9087C202.11 65.902 202.106 65.9016 202.104 65.9015C202.098 65.9008 202.035 65.8989 201.896 66.011C201.761 66.1201 201.587 66.3115 201.371 66.6203C201.166 66.9128 200.9 67.4425 200.594 68.1697C200.29 68.891 199.952 69.7888 199.601 70.8047C198.899 72.8362 198.144 75.3299 197.493 77.8086C196.841 80.2883 196.295 82.746 196.006 84.7068C195.862 85.6882 195.784 86.5366 195.787 87.1974C195.789 87.5279 195.811 87.8041 195.853 88.0228C195.895 88.2458 195.954 88.386 196.013 88.4643C196.678 89.3539 197.999 89.618 199.333 89.1633C200.653 88.7135 201.92 87.5717 202.4 85.7552C202.644 84.8298 202.785 83.453 202.856 81.8907C202.927 80.3337 202.927 78.6118 202.896 77.0059C202.865 75.4006 202.802 73.9141 202.747 72.8288C202.72 72.2862 202.694 71.8441 202.676 71.5378C202.667 71.3847 202.659 71.2654 202.654 71.1846L202.648 71.0927L202.646 71.0621C202.646 71.062 202.646 71.0617 202.884 71.0453L202.646 71.0621C202.635 70.9066 202.752 70.7715 202.908 70.7608C203.063 70.7501 203.198 70.8674 203.209 71.0229L202.957 71.0402C203.209 71.0229 203.209 71.0228 203.209 71.0229L203.211 71.055L203.217 71.148C203.222 71.2296 203.23 71.3496 203.239 71.5036C203.258 71.8116 203.283 72.2556 203.311 72.8003C203.366 73.8896 203.429 75.3822 203.46 76.995C203.491 78.6073 203.491 80.3425 203.42 81.9163C203.348 83.4847 203.206 84.9122 202.945 85.8992C202.416 87.9075 201.005 89.1898 199.515 89.6975C198.041 90.2002 196.423 89.955 195.561 88.8024C195.428 88.6254 195.348 88.3889 195.298 88.1288C195.248 87.8644 195.224 87.551 195.223 87.2003C195.219 86.4988 195.302 85.6187 195.448 84.6247C195.741 82.635 196.293 80.155 196.947 77.6652C197.601 75.1743 198.36 72.6667 199.068 70.6203C199.421 69.5972 199.763 68.6869 200.074 67.9504C200.382 67.2198 200.666 66.6419 200.908 66.2965C201.139 65.9675 201.348 65.7283 201.541 65.5721C201.731 65.4189 201.941 65.3171 202.162 65.3401C202.394 65.3642 202.55 65.5146 202.649 65.6698C202.746 65.8233 202.808 66.0142 202.851 66.2029C202.938 66.5832 202.962 67.0375 202.966 67.3855C202.969 67.5618 202.965 67.7155 202.962 67.8253C202.96 67.8802 202.958 67.9243 202.957 67.955L202.955 67.9905L202.954 68.0001L202.954 68.0028L202.954 68.0038Z" fill="#475569"/>
<path d="M114.879 161.01L123.655 184.728H133.341L137.671 172.49" fill="#14B8A6"/>
<path fill-rule="evenodd" clip-rule="evenodd" d="M114.781 160.746C114.927 160.692 115.089 160.766 115.143 160.912L123.851 184.446H133.142L137.405 172.396C137.457 172.249 137.618 172.172 137.765 172.224C137.912 172.276 137.989 172.437 137.937 172.584L133.608 184.822C133.568 184.935 133.461 185.01 133.341 185.01H123.655C123.537 185.01 123.431 184.937 123.39 184.826L114.614 161.108C114.56 160.962 114.635 160.8 114.781 160.746Z" fill="#475569"/>
<path d="M195.787 164.081L187.378 184.728H177.691L173.357 172.49" fill="#14B8A6"/>
<path fill-rule="evenodd" clip-rule="evenodd" d="M195.893 163.82C196.038 163.878 196.107 164.043 196.048 164.187L187.639 184.834C187.596 184.941 187.493 185.01 187.378 185.01H177.691C177.572 185.01 177.465 184.935 177.425 184.822L173.091 172.584C173.039 172.437 173.116 172.276 173.263 172.224C173.41 172.172 173.571 172.249 173.623 172.395L177.891 184.446H187.188L195.525 163.975C195.584 163.83 195.749 163.761 195.893 163.82Z" fill="#475569"/>
<path d="M154.894 151.608V146.656C151.241 146.513 148.51 145.342 146.701 143.145C144.893 140.948 143.913 137.667 143.763 133.301L151.27 132.023C151.303 133.519 151.49 135.008 151.829 136.465C152.026 137.46 152.496 138.38 153.185 139.124C153.497 139.421 153.864 139.651 154.266 139.803C154.668 139.954 155.097 140.023 155.526 140.006C156.623 140.006 157.377 139.653 157.789 138.938C158.207 138.191 158.418 137.346 158.401 136.49C158.456 134.881 158.019 133.293 157.147 131.94C156.172 130.562 155.02 129.319 153.719 128.243L149.194 124.354C148.207 123.438 147.282 122.456 146.427 121.416C145.588 120.39 144.926 119.231 144.468 117.988C143.959 116.535 143.715 115.002 143.748 113.463C143.748 110.132 144.698 107.535 146.598 105.671C148.499 103.807 151.044 102.751 154.233 102.502V97.8157H156.829V102.551C158.482 102.585 160.1 103.033 161.535 103.854C162.698 104.557 163.661 105.547 164.332 106.729C164.98 107.912 165.445 109.187 165.713 110.51C165.983 111.814 166.157 113.137 166.232 114.467L158.621 115.583C158.6 114.415 158.493 113.249 158.303 112.096C158.183 111.237 157.845 110.423 157.323 109.731C157.06 109.436 156.729 109.209 156.359 109.07C155.989 108.931 155.59 108.884 155.198 108.933C154.754 108.926 154.315 109.03 153.92 109.234C153.525 109.438 153.187 109.737 152.936 110.103C152.424 110.836 152.153 111.711 152.162 112.606C152.097 114.007 152.512 115.389 153.337 116.523C154.147 117.55 155.036 118.511 155.996 119.398L160.404 123.228C161.59 124.298 162.687 125.463 163.685 126.71C164.683 127.96 165.49 129.351 166.08 130.838C166.708 132.49 167.012 134.248 166.976 136.015C166.999 137.791 166.607 139.549 165.83 141.147C165.088 142.672 163.95 143.969 162.534 144.903C161.01 145.889 159.261 146.473 157.451 146.603V151.608H154.894Z" fill="#475569"/>
<path opacity="0.35" d="M173.72 123.159C182.526 123.159 189.665 116.246 189.665 107.718C189.665 99.1902 182.526 92.2769 173.72 92.2769C164.913 92.2769 157.774 99.1902 157.774 107.718C157.774 116.246 164.913 123.159 173.72 123.159Z" fill="white"/>
</svg>
