<svg width="24" height="24" viewBox="0 0 24 24" fill="none" xmlns="http://www.w3.org/2000/svg">
<path d="M4.21011 4.38702L4.29311 4.29302C4.4653 4.12084 4.6944 4.01741 4.93742 4.00213C5.18045 3.98685 5.4207 4.06077 5.61311 4.21002L5.70711 4.29302L12.0001 10.585L18.2931 4.29302C18.3854 4.19751 18.4957 4.12133 18.6177 4.06892C18.7397 4.01651 18.8709 3.98892 19.0037 3.98777C19.1365 3.98662 19.2682 4.01192 19.3911 4.0622C19.514 4.11248 19.6256 4.18673 19.7195 4.28062C19.8134 4.37452 19.8876 4.48617 19.9379 4.60907C19.9882 4.73196 20.0135 4.86364 20.0124 4.99642C20.0112 5.1292 19.9836 5.26042 19.9312 5.38242C19.8788 5.50443 19.8026 5.61477 19.7071 5.70702L13.4151 12L19.7071 18.293C19.8793 18.4652 19.9827 18.6943 19.998 18.9373C20.0133 19.1804 19.9394 19.4206 19.7901 19.613L19.7071 19.707C19.5349 19.8792 19.3058 19.9826 19.0628 19.9979C18.8198 20.0132 18.5795 19.9393 18.3871 19.79L18.2931 19.707L12.0001 13.415L5.70711 19.707C5.5185 19.8892 5.2659 19.99 5.0037 19.9877C4.74151 19.9854 4.49069 19.8802 4.30529 19.6948C4.11988 19.5094 4.01471 19.2586 4.01243 18.9964C4.01015 18.7342 4.11095 18.4816 4.29311 18.293L10.5851 12L4.29311 5.70702C4.12093 5.53483 4.0175 5.30573 4.00222 5.0627C3.98694 4.81968 4.06085 4.57942 4.21011 4.38702L4.29311 4.29302L4.21011 4.38702Z" fill="#128087"/>
</svg>
