<svg width="88" height="36" viewBox="0 0 88 36" fill="none" xmlns="http://www.w3.org/2000/svg">
<path d="M20.3088 5.48757C20.2036 5.20216 20.1774 4.81297 20.2299 4.32C20.2299 4.21622 20.2562 4.06054 20.3088 3.85297C19.7567 3.6973 19.1652 3.61946 18.5342 3.61946C17.9296 3.61946 17.3118 3.6973 16.6808 3.85297C15.787 4.11243 15.1034 4.42378 14.6302 4.78703C14.0256 5.22811 13.5655 5.77297 13.25 6.42162C12.9608 7.04432 12.7505 7.80973 12.6191 8.71784L12.5796 9.22378H25.1198L23.1481 25.1416L24.3311 25.3362C24.4626 25.3622 24.5809 25.3881 24.686 25.4141C24.8175 25.44 24.9227 25.453 25.0015 25.453L25.317 25.4919C25.948 25.6476 26.224 26.0497 26.1451 26.6984L25.8691 28.9946H17.785L18.2582 25.1416L18.6526 21.8724L18.8892 20.0043L19.8356 12.6097H12.3036V12.6486H12.2642L11.8304 16.1514L10.3319 28.1773C10.1741 29.5005 9.8455 30.6811 9.34599 31.7189C8.79391 32.7568 8.12352 33.5741 7.33483 34.1708C6.44098 34.8195 5.41568 35.2865 4.25893 35.5719C3.12848 35.8573 1.70883 36 0 36V33.5092C0 32.5232 0.525794 32.0303 1.57738 32.0303C2.10318 32.0303 2.57639 31.9524 2.99703 31.7968C3.47024 31.6151 3.86459 31.3946 4.18007 31.1351C4.49554 30.8497 4.78473 30.4346 5.04763 29.8897C5.28423 29.3708 5.44197 28.7611 5.52084 28.0605L7.01935 16.1514V16.0735L7.13766 14.9059L7.4137 12.6486H7.45314L5.71801 12.3762C5.32367 12.2984 5.03448 12.1687 4.85045 11.987C4.66642 11.7795 4.58756 11.507 4.61385 11.1697L4.85045 9.18487H7.84748L7.92635 8.56216C8.08409 7.3427 8.439 6.21406 8.99108 5.17622C9.54317 4.13838 10.2661 3.23027 11.16 2.45189C12.0275 1.69946 13.1449 1.1027 14.5119 0.661622C15.8527 0.220541 17.3775 0 19.0863 0H19.7962C19.8487 0 19.8882 0.0129736 19.9145 0.0389207C19.9407 0.0389207 19.967 0.0389207 19.9933 0.0389207H20.1116L20.782 0.0778391C21.2815 0.12973 21.7022 0.207568 22.0439 0.311352C23.3847 0.622704 24.5283 1.14162 25.4747 1.86811C25.6325 1.97189 25.7508 2.08865 25.8296 2.21838C26.0663 2.47784 26.2371 2.77622 26.3423 3.11352C26.4212 3.37297 26.4606 3.67135 26.4606 4.00865C26.4606 4.47568 26.316 4.96865 26.0268 5.48757C25.8428 5.82487 25.5799 6.13622 25.2381 6.42162C24.8964 6.70703 24.5415 6.92757 24.1734 7.08324C23.779 7.23892 23.3584 7.31676 22.9115 7.31676C22.4909 7.31676 22.1097 7.23892 21.7679 7.08324C21.3998 6.92757 21.0975 6.70703 20.8609 6.42162C20.598 6.13622 20.414 5.82487 20.3088 5.48757Z" fill="#475569"/>
<path d="M48.841 25.4919C49.4719 25.6476 49.7479 26.0497 49.6691 26.6984L49.393 28.9946H41.5061L43.0835 16.307C43.1361 15.8919 43.1624 15.6065 43.1624 15.4508C43.1624 14.6465 42.9783 13.9849 42.6103 13.4659C42.1371 12.7914 41.3221 12.4541 40.1653 12.4541C39.3241 12.4541 38.5091 12.6486 37.7204 13.0378C36.8528 13.453 36.0904 13.9589 35.4332 14.5557L34.6445 20.8995L34.5262 21.8335L34.1319 25.1416L33.6192 28.9946H28.7688L29.4786 23.1957L30.7799 12.8822L29.6363 12.6876C29.5049 12.6616 29.3866 12.6357 29.2814 12.6097C29.2025 12.5838 29.1237 12.5708 29.0448 12.5708L28.8082 12.5319C28.1772 12.3762 27.9012 11.9741 27.9801 11.3254L28.2561 9.02919H34.2107C34.8417 9.02919 35.2229 9.32757 35.3543 9.92433L35.5121 11.4811C35.9853 11.04 36.4585 10.6638 36.9317 10.3524C37.4575 9.98919 37.9702 9.70378 38.4697 9.49622C39.2058 9.18486 39.771 8.99027 40.1653 8.91243C40.8226 8.7827 41.4667 8.71784 42.0976 8.71784C43.2544 8.71784 44.214 8.89946 44.9764 9.2627C45.7651 9.62595 46.4092 10.1449 46.9087 10.8195C47.3556 11.4422 47.6842 12.2465 47.8945 13.2324C47.9997 13.7254 48.0523 14.2962 48.0523 14.9449C48.0523 15.5416 48.026 15.9957 47.9734 16.307L46.8692 25.1416L48.0128 25.3362L48.5649 25.453C48.6438 25.4789 48.7358 25.4919 48.841 25.4919Z" fill="#475569"/>
<path d="M57.5489 29.3059C55.8138 29.3059 54.5256 28.813 53.6843 27.827C53.0271 27.0746 52.6985 26.0368 52.6985 24.7135C52.6985 24.2984 52.7116 23.987 52.7379 23.7795L54.1575 12.6486H52.1069C51.844 12.6486 51.6206 12.5578 51.4365 12.3762C51.2788 12.2205 51.2131 11.9741 51.2394 11.6368L51.476 9.69081L54.7885 9.18487L56.5236 3.73622C56.5762 3.52865 56.7208 3.33406 56.9574 3.15243C57.1677 2.99676 57.4175 2.91892 57.7066 2.91892H60.2305L59.4418 9.22378H64.7654L64.3317 12.6486H59.008L57.6672 23.4681L57.6278 23.8962C57.6278 24.2854 57.7329 24.6227 57.9433 24.9081C58.2062 25.2454 58.6136 25.4141 59.1657 25.4141C59.5338 25.4141 59.7835 25.3881 59.915 25.3362L60.5065 25.1027L60.9008 24.8692C60.9797 24.8173 61.1112 24.7914 61.2952 24.7914C61.4529 24.7914 61.5581 24.8173 61.6107 24.8692C61.7684 25.0249 61.8604 25.1286 61.8867 25.1805L63.0697 27.5157C62.3336 28.0605 61.4529 28.5016 60.4276 28.8389C59.4812 29.1503 58.5216 29.3059 57.5489 29.3059Z" fill="#475569"/>
<path d="M87.1587 25.4919C87.7897 25.6476 88.0657 26.0497 87.9869 26.6984L87.7108 28.9946H81.7168C81.1121 28.9946 80.744 28.6962 80.6126 28.0995L80.4549 26.5038C79.9816 26.9449 79.5084 27.3341 79.0352 27.6714C78.6146 27.9827 78.1019 28.2681 77.4973 28.5276C76.9715 28.7611 76.3931 28.9557 75.7621 29.1114C75.1049 29.2411 74.4739 29.3059 73.8693 29.3059C72.7651 29.3059 71.8055 29.1243 70.9906 28.7611C70.2807 28.4497 69.6366 27.9178 69.0583 27.1654C68.585 26.5427 68.2433 25.7514 68.033 24.7914C67.9278 24.3503 67.8752 23.8314 67.8752 23.2346C67.8752 22.7676 67.9147 22.2616 67.9935 21.7168L69.0977 12.8822L67.126 12.5319C66.495 12.3762 66.219 11.9741 66.2978 11.3254L66.5739 9.02919H74.4214L72.844 21.7168C72.8177 21.8984 72.8045 22.1578 72.8045 22.4951C72.8045 23.3514 72.9886 24.0389 73.3566 24.5578C73.8298 25.2065 74.6448 25.5308 75.8016 25.5308C76.6166 25.5308 77.4315 25.3492 78.2465 24.9859C79.0089 24.6486 79.7713 24.1427 80.5337 23.4681L81.8351 12.8822C81.0989 12.7524 80.6126 12.6616 80.376 12.6097C80.1657 12.5578 80.0079 12.5319 79.9028 12.5319C79.2455 12.3762 78.9563 11.9741 79.0352 11.3254L79.3507 9.02919H87.1982L85.187 25.1416L87.1587 25.4919Z" fill="#475569"/>
</svg>
