<svg width="24" height="24" viewBox="0 0 24 24" fill="none" xmlns="http://www.w3.org/2000/svg">
<path d="M3 17H21C21.2549 17.0003 21.5 17.0979 21.6854 17.2728C21.8707 17.4478 21.9822 17.687 21.9972 17.9414C22.0121 18.1958 21.9293 18.4464 21.7657 18.6418C21.6021 18.8373 21.3701 18.9629 21.117 18.993L21 19H3C2.74512 18.9997 2.49997 18.9021 2.31463 18.7272C2.12929 18.5522 2.01776 18.313 2.00283 18.0586C1.98789 17.8042 2.07067 17.5536 2.23426 17.3582C2.39785 17.1627 2.6299 17.0371 2.883 17.007L3 17H21H3ZM3 11L21 10.998C21.2549 10.9983 21.5 11.0959 21.6854 11.2708C21.8707 11.4458 21.9822 11.685 21.9972 11.9394C22.0121 12.1938 21.9293 12.4444 21.7657 12.6398C21.6021 12.8353 21.3701 12.9609 21.117 12.991L21 12.998L3 13C2.74512 12.9997 2.49997 12.9021 2.31463 12.7272C2.12929 12.5522 2.01776 12.313 2.00283 12.0586C1.98789 11.8042 2.07067 11.5536 2.23426 11.3582C2.39785 11.1627 2.6299 11.0371 2.883 11.007L3 11L21 10.998L3 11ZM3 5H21C21.2549 5.00028 21.5 5.09788 21.6854 5.27285C21.8707 5.44782 21.9822 5.68695 21.9972 5.94139C22.0121 6.19584 21.9293 6.44638 21.7657 6.64183C21.6021 6.83729 21.3701 6.9629 21.117 6.993L21 7H3C2.74512 6.99972 2.49997 6.90212 2.31463 6.72715C2.12929 6.55218 2.01776 6.31305 2.00283 6.05861C1.98789 5.80416 2.07067 5.55362 2.23426 5.35817C2.39785 5.16271 2.6299 5.0371 2.883 5.007L3 5H21H3Z" fill="#128087"/>
</svg>
