<svg width="24" height="24" viewBox="0 0 24 24" fill="none" xmlns="http://www.w3.org/2000/svg">
<path d="M14.712 2.28898L14.625 2.21098C14.4327 2.05914 14.1913 1.9832 13.9467 1.99757C13.702 2.01195 13.4712 2.11565 13.298 2.28898L13.22 2.37598C13.0682 2.56815 12.9923 2.80937 13.0067 3.05382C13.0211 3.29827 13.1247 3.52893 13.298 3.70198L14.597 4.99898H8.999L8.759 5.00298C6.94605 5.06468 5.22792 5.82806 3.96696 7.13212C2.70599 8.43618 2.00077 10.179 2 11.993C2 13.438 2.438 14.781 3.189 15.892C3.34322 16.1076 3.57679 16.2531 3.8383 16.2965C4.09982 16.34 4.36788 16.2777 4.5835 16.1235C4.79912 15.9693 4.94465 15.7357 4.98806 15.4742C5.03148 15.2127 4.96922 14.9446 4.815 14.729L4.68 14.511C4.23737 13.7514 4.00295 12.8886 4.0004 12.0095C3.99784 11.1304 4.22725 10.2662 4.66545 9.50411C5.10366 8.74202 5.73516 8.10901 6.4962 7.669C7.25725 7.22898 8.12091 6.99752 9 6.99798H14.595L13.298 8.29498L13.22 8.38198C13.0576 8.58166 12.9786 8.83631 12.9993 9.09285C13.0201 9.34938 13.1391 9.588 13.3314 9.75898C13.5238 9.92995 13.7748 10.0201 14.032 10.0106C14.2892 10.0011 14.5328 9.89268 14.712 9.70798L17.718 6.70498L17.795 6.61798C17.9468 6.42581 18.0227 6.18459 18.0083 5.94014C17.9939 5.69569 17.8903 5.46503 17.717 5.29198L14.712 2.28898V2.28898ZM20.787 8.05998C20.6589 7.89563 20.4827 7.77544 20.2829 7.71622C20.0832 7.65701 19.8699 7.66173 19.673 7.72972C19.476 7.79772 19.3053 7.9256 19.1846 8.09545C19.0639 8.2653 18.9994 8.46863 19 8.67698C19 8.88598 19.064 9.07898 19.172 9.23798C19.6692 9.99117 19.9532 10.865 19.9937 11.7666C20.0342 12.6682 19.8298 13.5639 19.4022 14.3587C18.9746 15.1535 18.3397 15.8176 17.5649 16.2805C16.7902 16.7435 15.9045 16.9879 15.002 16.988H9.414L10.708 15.698L10.791 15.602C10.9272 15.4256 11.0006 15.2088 10.9995 14.9859C10.9984 14.7631 10.9229 14.547 10.785 14.372L10.708 14.284L10.613 14.2C10.4364 14.0635 10.2192 13.9899 9.99597 13.991C9.77274 13.9921 9.55628 14.0678 9.381 14.206L9.293 14.284L6.288 17.287L6.205 17.382C6.06857 17.5584 5.99505 17.7755 5.99613 17.9985C5.99722 18.2216 6.07285 18.4379 6.211 18.613L6.288 18.7L9.293 21.703L9.388 21.787C9.58107 21.9361 9.82199 22.0095 10.0654 21.9934C10.3088 21.9773 10.538 21.8727 10.7097 21.6994C10.8814 21.5261 10.9838 21.296 10.9977 21.0524C11.0115 20.8089 10.9359 20.5687 10.785 20.377L10.708 20.29L9.404 18.987H15L15.24 18.984C16.4907 18.941 17.7071 18.5634 18.7622 17.8904C19.8173 17.2175 20.6727 16.2739 21.2391 15.1579C21.8055 14.0419 22.0622 12.7945 21.9826 11.5455C21.9029 10.2966 21.4897 9.0919 20.786 8.05698V8.05998H20.787Z" fill="#94A3B8"/>
</svg>
