<svg width="24" height="24" viewBox="0 0 24 24" fill="none" xmlns="http://www.w3.org/2000/svg">
<path d="M16 8.25C16 8.05109 16.079 7.86032 16.2197 7.71967C16.3603 7.57902 16.5511 7.5 16.75 7.5C16.9489 7.5 17.1397 7.57902 17.2803 7.71967C17.421 7.86032 17.5 8.05109 17.5 8.25V11.5C17.5 11.6989 17.421 11.8897 17.2803 12.0303C17.1397 12.171 16.9489 12.25 16.75 12.25H14C13.8011 12.25 13.6103 12.171 13.4697 12.0303C13.329 11.8897 13.25 11.6989 13.25 11.5C13.25 11.3011 13.329 11.1103 13.4697 10.9697C13.6103 10.829 13.8011 10.75 14 10.75H15.27C15.0166 10.0881 14.5684 9.51871 13.9846 9.11698C13.4007 8.71525 12.7087 8.50011 12 8.5C10.907 8.5 9.963 8.964 9.327 9.73C9.1997 9.88303 9.01682 9.97922 8.81859 9.99741C8.62036 10.0156 8.42303 9.9543 8.27 9.827C8.11697 9.6997 8.02078 9.51682 8.00259 9.31859C7.9844 9.12036 8.0457 8.92303 8.173 8.77C9.096 7.66 10.463 7 12 7C13.636 7 15.088 7.785 16 9V8.25ZM8 15V15.75C8 15.9489 7.92098 16.1397 7.78033 16.2803C7.63968 16.421 7.44891 16.5 7.25 16.5C7.05109 16.5 6.86032 16.421 6.71967 16.2803C6.57902 16.1397 6.5 15.9489 6.5 15.75V12.75C6.5 12.5511 6.57902 12.3603 6.71967 12.2197C6.86032 12.079 7.05109 12 7.25 12H10C10.1989 12 10.3897 12.079 10.5303 12.2197C10.671 12.3603 10.75 12.5511 10.75 12.75C10.75 12.9489 10.671 13.1397 10.5303 13.2803C10.3897 13.421 10.1989 13.5 10 13.5H8.837C9.08947 14.0282 9.46993 14.4849 9.9438 14.8286C10.4177 15.1723 10.9699 15.3922 11.5504 15.4682C12.1308 15.5442 12.721 15.4739 13.2674 15.2638C13.8138 15.0537 14.299 14.7103 14.679 14.265C14.7421 14.1876 14.82 14.1235 14.9081 14.0766C14.9962 14.0297 15.0929 14.0008 15.1923 13.9918C15.2918 13.9827 15.392 13.9935 15.4872 14.0237C15.5824 14.0539 15.6706 14.1028 15.7466 14.1675C15.8227 14.2322 15.885 14.3115 15.93 14.4006C15.975 14.4898 16.0018 14.587 16.0087 14.6866C16.0156 14.7862 16.0026 14.8862 15.9704 14.9807C15.9381 15.0753 15.8874 15.1624 15.821 15.237C15.3338 15.8088 14.7243 16.2637 14.0376 16.5682C13.3508 16.8728 12.6045 17.019 11.8536 16.9963C11.1027 16.9735 10.3666 16.7823 9.69957 16.4368C9.03255 16.0913 8.45171 15.6002 8 15V15ZM12 2C6.477 2 2 6.477 2 12C2 17.523 6.477 22 12 22C17.523 22 22 17.523 22 12C22 6.477 17.523 2 12 2ZM20.5 12C20.5 14.2543 19.6045 16.4163 18.0104 18.0104C16.4163 19.6045 14.2543 20.5 12 20.5C9.74566 20.5 7.58365 19.6045 5.98959 18.0104C4.39553 16.4163 3.5 14.2543 3.5 12C3.5 9.74566 4.39553 7.58365 5.98959 5.98959C7.58365 4.39553 9.74566 3.5 12 3.5C14.2543 3.5 16.4163 4.39553 18.0104 5.98959C19.6045 7.58365 20.5 9.74566 20.5 12V12Z" fill="#94A3B8"/>
</svg>
