<svg width="24" height="24" viewBox="0 0 24 24" fill="none" xmlns="http://www.w3.org/2000/svg">
<path d="M10.733 19.79C10.878 19.9213 11.0686 19.9907 11.2641 19.9834C11.4596 19.9761 11.6445 19.8927 11.7794 19.7511C11.9143 19.6094 11.9885 19.4206 11.9862 19.225C11.9838 19.0294 11.9052 18.8425 11.767 18.704L5.51599 12.75H20.25C20.4489 12.75 20.6397 12.671 20.7803 12.5303C20.921 12.3897 21 12.1989 21 12C21 11.8011 20.921 11.6103 20.7803 11.4697C20.6397 11.329 20.4489 11.25 20.25 11.25H5.51599L11.767 5.29502C11.9052 5.15658 11.9838 4.96962 11.9862 4.77402C11.9885 4.57841 11.9143 4.38964 11.7794 4.24797C11.6445 4.1063 11.4596 4.02293 11.2641 4.01566C11.0686 4.00838 10.878 4.07777 10.733 4.20902L3.31299 11.276C3.15059 11.4301 3.0449 11.6344 3.01299 11.856C2.99469 11.9515 2.99503 12.0496 3.01399 12.145C3.04611 12.3662 3.15179 12.5702 3.31399 12.724L10.733 19.791V19.79Z" fill="#128087"/>
</svg>
