<svg width="24" height="24" viewBox="0 0 24 24" fill="none" xmlns="http://www.w3.org/2000/svg">
<path fill-rule="evenodd" clip-rule="evenodd" d="M16 9C15.45 9 15 9.45 15 10C15 10.55 15.45 11 16 11C16.55 11 17 10.55 17 10C17 9.45 16.55 9 16 9ZM13 8H8V6H13V8ZM22 14.47V7.5H19.83L17.56 5.23C17.62 4.81 17.74 4.42 17.88 4.08C17.96 3.9 18 3.71 18 3.5C18 2.67 17.33 2 16.5 2C14.86 2 13.41 2.79 12.5 4H7.5C4.46 4 2 6.46 2 9.5C2 12.54 4.5 21 4.5 21H10V19H12V21H17.5L19.18 15.41L22 14.47Z" fill="#94A3B8"/>
</svg>
